G75*
%MOIN*%
%OFA0B0*%
%FSLAX25Y25*%
%IPPOS*%
%LPD*%
%AMOC8*
5,1,8,0,0,1.08239X$1,22.5*
%
%ADD10R,0.04331X0.03937*%
%ADD11R,0.03150X0.03150*%
%ADD12R,0.03937X0.04331*%
%ADD13R,0.01800X0.07000*%
%ADD14R,0.04134X0.04252*%
%ADD15R,0.05906X0.07874*%
%ADD16R,0.02100X0.07800*%
%ADD17R,0.04252X0.04134*%
%ADD18R,0.09449X0.09449*%
D10*
X0145500Y0169630D03*
X0145500Y0176323D03*
D11*
X0036703Y0157476D03*
X0030797Y0157476D03*
X0030797Y0147976D03*
X0036703Y0147976D03*
D12*
X0043154Y0147976D03*
X0049846Y0147976D03*
X0049846Y0157476D03*
X0043154Y0157476D03*
D13*
X0062750Y0172626D03*
X0067750Y0172626D03*
X0072750Y0172626D03*
X0077750Y0172626D03*
X0082750Y0172626D03*
X0087750Y0172626D03*
X0092750Y0172626D03*
X0097750Y0172626D03*
X0102750Y0172626D03*
X0107750Y0172626D03*
X0112750Y0172626D03*
X0117750Y0172626D03*
X0122750Y0172626D03*
X0127750Y0172626D03*
X0127750Y0134826D03*
X0122750Y0134826D03*
X0117750Y0134826D03*
X0112750Y0134826D03*
X0107750Y0134826D03*
X0102750Y0134826D03*
X0097750Y0134826D03*
X0092750Y0134826D03*
X0087750Y0134826D03*
X0082750Y0134826D03*
X0077750Y0134826D03*
X0072750Y0134826D03*
X0067750Y0134826D03*
X0062750Y0134826D03*
D14*
X0062445Y0181226D03*
X0055555Y0181226D03*
X0075305Y0205726D03*
X0082195Y0205726D03*
X0087555Y0205726D03*
X0094445Y0205726D03*
X0134055Y0134726D03*
X0140945Y0134726D03*
D15*
X0086406Y0124226D03*
X0074594Y0124226D03*
D16*
X0106750Y0064776D03*
X0111750Y0064776D03*
X0116750Y0064776D03*
X0121750Y0064776D03*
X0130500Y0064776D03*
X0135500Y0064776D03*
X0140500Y0064776D03*
X0145500Y0064776D03*
X0145500Y0084176D03*
X0140500Y0084176D03*
X0135500Y0084176D03*
X0130500Y0084176D03*
X0121750Y0084176D03*
X0116750Y0084176D03*
X0111750Y0084176D03*
X0106750Y0084176D03*
D17*
X0121750Y0092282D03*
X0121750Y0099171D03*
X0145500Y0099171D03*
X0145500Y0092282D03*
X0157750Y0132032D03*
X0163250Y0132032D03*
X0168750Y0132032D03*
X0168750Y0138921D03*
X0163250Y0138921D03*
X0157750Y0138921D03*
D18*
X0185500Y0146138D03*
X0185500Y0128815D03*
M02*
