G75*
%MOIN*%
%OFA0B0*%
%FSLAX25Y25*%
%IPPOS*%
%LPD*%
%AMOC8*
5,1,8,0,0,1.08239X$1,22.5*
%
%ADD10C,0.00000*%
D10*
X0019500Y0032476D02*
X0019500Y0213604D01*
X0233530Y0213604D01*
X0233530Y0032476D01*
X0019500Y0032476D01*
X0151209Y0186726D02*
X0151211Y0186854D01*
X0151217Y0186982D01*
X0151227Y0187109D01*
X0151241Y0187237D01*
X0151258Y0187363D01*
X0151280Y0187489D01*
X0151306Y0187615D01*
X0151335Y0187739D01*
X0151368Y0187863D01*
X0151405Y0187985D01*
X0151446Y0188106D01*
X0151491Y0188226D01*
X0151539Y0188345D01*
X0151591Y0188462D01*
X0151647Y0188577D01*
X0151706Y0188691D01*
X0151768Y0188802D01*
X0151834Y0188912D01*
X0151903Y0189019D01*
X0151976Y0189125D01*
X0152052Y0189228D01*
X0152131Y0189328D01*
X0152213Y0189427D01*
X0152298Y0189522D01*
X0152386Y0189615D01*
X0152477Y0189705D01*
X0152570Y0189792D01*
X0152667Y0189877D01*
X0152765Y0189958D01*
X0152867Y0190036D01*
X0152970Y0190111D01*
X0153076Y0190183D01*
X0153184Y0190252D01*
X0153294Y0190317D01*
X0153407Y0190378D01*
X0153521Y0190437D01*
X0153636Y0190491D01*
X0153754Y0190542D01*
X0153872Y0190590D01*
X0153993Y0190633D01*
X0154114Y0190673D01*
X0154237Y0190709D01*
X0154361Y0190742D01*
X0154486Y0190770D01*
X0154611Y0190795D01*
X0154737Y0190815D01*
X0154864Y0190832D01*
X0154992Y0190845D01*
X0155119Y0190854D01*
X0155247Y0190859D01*
X0155375Y0190860D01*
X0155503Y0190857D01*
X0155631Y0190850D01*
X0155758Y0190839D01*
X0155885Y0190824D01*
X0156012Y0190806D01*
X0156138Y0190783D01*
X0156263Y0190756D01*
X0156387Y0190726D01*
X0156510Y0190692D01*
X0156633Y0190654D01*
X0156754Y0190612D01*
X0156873Y0190566D01*
X0156991Y0190517D01*
X0157108Y0190464D01*
X0157223Y0190408D01*
X0157336Y0190348D01*
X0157447Y0190285D01*
X0157556Y0190218D01*
X0157663Y0190148D01*
X0157768Y0190074D01*
X0157870Y0189998D01*
X0157970Y0189918D01*
X0158068Y0189835D01*
X0158163Y0189749D01*
X0158255Y0189660D01*
X0158344Y0189569D01*
X0158431Y0189475D01*
X0158514Y0189378D01*
X0158595Y0189278D01*
X0158672Y0189177D01*
X0158747Y0189072D01*
X0158818Y0188966D01*
X0158885Y0188857D01*
X0158950Y0188747D01*
X0159010Y0188634D01*
X0159068Y0188520D01*
X0159121Y0188404D01*
X0159171Y0188286D01*
X0159218Y0188167D01*
X0159261Y0188046D01*
X0159300Y0187924D01*
X0159335Y0187801D01*
X0159366Y0187677D01*
X0159394Y0187552D01*
X0159417Y0187426D01*
X0159437Y0187300D01*
X0159453Y0187173D01*
X0159465Y0187046D01*
X0159473Y0186918D01*
X0159477Y0186790D01*
X0159477Y0186662D01*
X0159473Y0186534D01*
X0159465Y0186406D01*
X0159453Y0186279D01*
X0159437Y0186152D01*
X0159417Y0186026D01*
X0159394Y0185900D01*
X0159366Y0185775D01*
X0159335Y0185651D01*
X0159300Y0185528D01*
X0159261Y0185406D01*
X0159218Y0185285D01*
X0159171Y0185166D01*
X0159121Y0185048D01*
X0159068Y0184932D01*
X0159010Y0184818D01*
X0158950Y0184705D01*
X0158885Y0184595D01*
X0158818Y0184486D01*
X0158747Y0184380D01*
X0158672Y0184275D01*
X0158595Y0184174D01*
X0158514Y0184074D01*
X0158431Y0183977D01*
X0158344Y0183883D01*
X0158255Y0183792D01*
X0158163Y0183703D01*
X0158068Y0183617D01*
X0157970Y0183534D01*
X0157870Y0183454D01*
X0157768Y0183378D01*
X0157663Y0183304D01*
X0157556Y0183234D01*
X0157447Y0183167D01*
X0157336Y0183104D01*
X0157223Y0183044D01*
X0157108Y0182988D01*
X0156991Y0182935D01*
X0156873Y0182886D01*
X0156754Y0182840D01*
X0156633Y0182798D01*
X0156510Y0182760D01*
X0156387Y0182726D01*
X0156263Y0182696D01*
X0156138Y0182669D01*
X0156012Y0182646D01*
X0155885Y0182628D01*
X0155758Y0182613D01*
X0155631Y0182602D01*
X0155503Y0182595D01*
X0155375Y0182592D01*
X0155247Y0182593D01*
X0155119Y0182598D01*
X0154992Y0182607D01*
X0154864Y0182620D01*
X0154737Y0182637D01*
X0154611Y0182657D01*
X0154486Y0182682D01*
X0154361Y0182710D01*
X0154237Y0182743D01*
X0154114Y0182779D01*
X0153993Y0182819D01*
X0153872Y0182862D01*
X0153754Y0182910D01*
X0153636Y0182961D01*
X0153521Y0183015D01*
X0153407Y0183074D01*
X0153294Y0183135D01*
X0153184Y0183200D01*
X0153076Y0183269D01*
X0152970Y0183341D01*
X0152867Y0183416D01*
X0152765Y0183494D01*
X0152667Y0183575D01*
X0152570Y0183660D01*
X0152477Y0183747D01*
X0152386Y0183837D01*
X0152298Y0183930D01*
X0152213Y0184025D01*
X0152131Y0184124D01*
X0152052Y0184224D01*
X0151976Y0184327D01*
X0151903Y0184433D01*
X0151834Y0184540D01*
X0151768Y0184650D01*
X0151706Y0184761D01*
X0151647Y0184875D01*
X0151591Y0184990D01*
X0151539Y0185107D01*
X0151491Y0185226D01*
X0151446Y0185346D01*
X0151405Y0185467D01*
X0151368Y0185589D01*
X0151335Y0185713D01*
X0151306Y0185837D01*
X0151280Y0185963D01*
X0151258Y0186089D01*
X0151241Y0186215D01*
X0151227Y0186343D01*
X0151217Y0186470D01*
X0151211Y0186598D01*
X0151209Y0186726D01*
X0116523Y0196726D02*
X0116525Y0196854D01*
X0116531Y0196982D01*
X0116541Y0197109D01*
X0116555Y0197237D01*
X0116572Y0197363D01*
X0116594Y0197489D01*
X0116620Y0197615D01*
X0116649Y0197739D01*
X0116682Y0197863D01*
X0116719Y0197985D01*
X0116760Y0198106D01*
X0116805Y0198226D01*
X0116853Y0198345D01*
X0116905Y0198462D01*
X0116961Y0198577D01*
X0117020Y0198691D01*
X0117082Y0198802D01*
X0117148Y0198912D01*
X0117217Y0199019D01*
X0117290Y0199125D01*
X0117366Y0199228D01*
X0117445Y0199328D01*
X0117527Y0199427D01*
X0117612Y0199522D01*
X0117700Y0199615D01*
X0117791Y0199705D01*
X0117884Y0199792D01*
X0117981Y0199877D01*
X0118079Y0199958D01*
X0118181Y0200036D01*
X0118284Y0200111D01*
X0118390Y0200183D01*
X0118498Y0200252D01*
X0118608Y0200317D01*
X0118721Y0200378D01*
X0118835Y0200437D01*
X0118950Y0200491D01*
X0119068Y0200542D01*
X0119186Y0200590D01*
X0119307Y0200633D01*
X0119428Y0200673D01*
X0119551Y0200709D01*
X0119675Y0200742D01*
X0119800Y0200770D01*
X0119925Y0200795D01*
X0120051Y0200815D01*
X0120178Y0200832D01*
X0120306Y0200845D01*
X0120433Y0200854D01*
X0120561Y0200859D01*
X0120689Y0200860D01*
X0120817Y0200857D01*
X0120945Y0200850D01*
X0121072Y0200839D01*
X0121199Y0200824D01*
X0121326Y0200806D01*
X0121452Y0200783D01*
X0121577Y0200756D01*
X0121701Y0200726D01*
X0121824Y0200692D01*
X0121947Y0200654D01*
X0122068Y0200612D01*
X0122187Y0200566D01*
X0122305Y0200517D01*
X0122422Y0200464D01*
X0122537Y0200408D01*
X0122650Y0200348D01*
X0122761Y0200285D01*
X0122870Y0200218D01*
X0122977Y0200148D01*
X0123082Y0200074D01*
X0123184Y0199998D01*
X0123284Y0199918D01*
X0123382Y0199835D01*
X0123477Y0199749D01*
X0123569Y0199660D01*
X0123658Y0199569D01*
X0123745Y0199475D01*
X0123828Y0199378D01*
X0123909Y0199278D01*
X0123986Y0199177D01*
X0124061Y0199072D01*
X0124132Y0198966D01*
X0124199Y0198857D01*
X0124264Y0198747D01*
X0124324Y0198634D01*
X0124382Y0198520D01*
X0124435Y0198404D01*
X0124485Y0198286D01*
X0124532Y0198167D01*
X0124575Y0198046D01*
X0124614Y0197924D01*
X0124649Y0197801D01*
X0124680Y0197677D01*
X0124708Y0197552D01*
X0124731Y0197426D01*
X0124751Y0197300D01*
X0124767Y0197173D01*
X0124779Y0197046D01*
X0124787Y0196918D01*
X0124791Y0196790D01*
X0124791Y0196662D01*
X0124787Y0196534D01*
X0124779Y0196406D01*
X0124767Y0196279D01*
X0124751Y0196152D01*
X0124731Y0196026D01*
X0124708Y0195900D01*
X0124680Y0195775D01*
X0124649Y0195651D01*
X0124614Y0195528D01*
X0124575Y0195406D01*
X0124532Y0195285D01*
X0124485Y0195166D01*
X0124435Y0195048D01*
X0124382Y0194932D01*
X0124324Y0194818D01*
X0124264Y0194705D01*
X0124199Y0194595D01*
X0124132Y0194486D01*
X0124061Y0194380D01*
X0123986Y0194275D01*
X0123909Y0194174D01*
X0123828Y0194074D01*
X0123745Y0193977D01*
X0123658Y0193883D01*
X0123569Y0193792D01*
X0123477Y0193703D01*
X0123382Y0193617D01*
X0123284Y0193534D01*
X0123184Y0193454D01*
X0123082Y0193378D01*
X0122977Y0193304D01*
X0122870Y0193234D01*
X0122761Y0193167D01*
X0122650Y0193104D01*
X0122537Y0193044D01*
X0122422Y0192988D01*
X0122305Y0192935D01*
X0122187Y0192886D01*
X0122068Y0192840D01*
X0121947Y0192798D01*
X0121824Y0192760D01*
X0121701Y0192726D01*
X0121577Y0192696D01*
X0121452Y0192669D01*
X0121326Y0192646D01*
X0121199Y0192628D01*
X0121072Y0192613D01*
X0120945Y0192602D01*
X0120817Y0192595D01*
X0120689Y0192592D01*
X0120561Y0192593D01*
X0120433Y0192598D01*
X0120306Y0192607D01*
X0120178Y0192620D01*
X0120051Y0192637D01*
X0119925Y0192657D01*
X0119800Y0192682D01*
X0119675Y0192710D01*
X0119551Y0192743D01*
X0119428Y0192779D01*
X0119307Y0192819D01*
X0119186Y0192862D01*
X0119068Y0192910D01*
X0118950Y0192961D01*
X0118835Y0193015D01*
X0118721Y0193074D01*
X0118608Y0193135D01*
X0118498Y0193200D01*
X0118390Y0193269D01*
X0118284Y0193341D01*
X0118181Y0193416D01*
X0118079Y0193494D01*
X0117981Y0193575D01*
X0117884Y0193660D01*
X0117791Y0193747D01*
X0117700Y0193837D01*
X0117612Y0193930D01*
X0117527Y0194025D01*
X0117445Y0194124D01*
X0117366Y0194224D01*
X0117290Y0194327D01*
X0117217Y0194433D01*
X0117148Y0194540D01*
X0117082Y0194650D01*
X0117020Y0194761D01*
X0116961Y0194875D01*
X0116905Y0194990D01*
X0116853Y0195107D01*
X0116805Y0195226D01*
X0116760Y0195346D01*
X0116719Y0195467D01*
X0116682Y0195589D01*
X0116649Y0195713D01*
X0116620Y0195837D01*
X0116594Y0195963D01*
X0116572Y0196089D01*
X0116555Y0196215D01*
X0116541Y0196343D01*
X0116531Y0196470D01*
X0116525Y0196598D01*
X0116523Y0196726D01*
M02*
