%
M48
M72
T01C0.01378
T02C0.03200
T03C0.04000
T04C0.05500
T05C0.05512
T06C0.08268
%
T01
X89500Y103976
X66750Y125476
X82750Y141976
X121750Y103976
X126750Y92226
X145500Y104976
X152305Y92282
X137846Y143380
X145346Y162880
X109500Y188226
X92750Y178726
X60000Y189476
T02
X75500Y191476
X94500Y191476
T03
X45000Y39726
X45000Y49726
X45000Y59726
X45000Y69726
X45000Y79726
X45000Y89726
X45000Y99726
X45000Y109726
X45000Y119726
X45000Y129726
X206750Y129726
X206750Y119726
X206750Y109726
X206750Y99726
X206750Y89726
X206750Y79726
X206750Y69726
X206750Y59726
X206750Y49726
X206750Y39726
T04
X209000Y173726
X189000Y173726
T05
X150500Y196726
X140500Y196726
X130500Y196726
X125500Y186726
X135500Y186726
X145500Y186726
T06
X155343Y186726
X120657Y196726
M30
