G75*
%MOIN*%
%OFA0B0*%
%FSLAX25Y25*%
%IPPOS*%
%LPD*%
%AMOC8*
5,1,8,0,0,1.08239X$1,22.5*
%
%ADD10C,0.00600*%
%ADD11C,0.03000*%
%ADD12C,0.00500*%
%ADD13R,0.02000X0.03000*%
%ADD14R,0.04000X0.03000*%
D10*
X0214250Y0034726D02*
X0224250Y0034726D01*
X0224250Y0044726D01*
X0224250Y0054726D01*
X0224250Y0064726D01*
X0224250Y0074726D01*
X0224250Y0084726D01*
X0224250Y0094726D01*
X0224250Y0104726D01*
X0224250Y0114726D01*
X0224250Y0124726D01*
X0224250Y0134726D01*
X0214250Y0134726D01*
X0214250Y0124726D01*
X0224250Y0124726D01*
X0224250Y0114726D02*
X0214250Y0114726D01*
X0214250Y0124726D01*
X0214250Y0114726D02*
X0214250Y0104726D01*
X0224250Y0104726D01*
X0224250Y0094726D02*
X0214250Y0094726D01*
X0214250Y0104726D01*
X0214250Y0094726D02*
X0214250Y0084726D01*
X0224250Y0084726D01*
X0214250Y0084726D02*
X0214250Y0074726D01*
X0224250Y0074726D01*
X0224250Y0064726D02*
X0214250Y0064726D01*
X0214250Y0074726D01*
X0214250Y0064726D02*
X0214250Y0054726D01*
X0224250Y0054726D01*
X0214250Y0054726D02*
X0214250Y0044726D01*
X0224250Y0044726D01*
X0214250Y0044726D02*
X0214250Y0034726D01*
D11*
X0226750Y0039726D02*
X0249250Y0039726D01*
X0249250Y0049726D02*
X0226750Y0049726D01*
X0226750Y0059726D02*
X0249250Y0059726D01*
X0249250Y0069726D02*
X0226750Y0069726D01*
X0226750Y0079726D02*
X0249250Y0079726D01*
X0249250Y0089726D02*
X0226750Y0089726D01*
X0226750Y0099726D02*
X0249250Y0099726D01*
X0249250Y0109726D02*
X0226750Y0109726D01*
X0226750Y0119726D02*
X0249250Y0119726D01*
X0249250Y0129726D02*
X0226750Y0129726D01*
D12*
X0211104Y0027476D02*
X0208101Y0027476D01*
X0209603Y0027476D02*
X0209603Y0031980D01*
X0211104Y0030479D01*
X0212705Y0029728D02*
X0213456Y0028978D01*
X0215708Y0028978D01*
X0215708Y0027476D02*
X0215708Y0031980D01*
X0213456Y0031980D01*
X0212705Y0031230D01*
X0212705Y0029728D01*
X0217309Y0031980D02*
X0218811Y0031980D01*
X0218060Y0031980D02*
X0218060Y0028227D01*
X0218811Y0027476D01*
X0219561Y0027476D01*
X0220312Y0028227D01*
D13*
X0225250Y0039726D03*
X0225250Y0049726D03*
X0225250Y0059726D03*
X0225250Y0069726D03*
X0225250Y0079726D03*
X0225250Y0089726D03*
X0225250Y0099726D03*
X0225250Y0109726D03*
X0225250Y0119726D03*
X0225250Y0129726D03*
D14*
X0212250Y0129726D03*
X0212250Y0119726D03*
X0212250Y0109726D03*
X0212250Y0099726D03*
X0212250Y0089726D03*
X0212250Y0079726D03*
X0212250Y0069726D03*
X0212250Y0059726D03*
X0212250Y0049726D03*
X0212250Y0039726D03*
M02*
