G75*
%MOIN*%
%OFA0B0*%
%FSLAX25Y25*%
%IPPOS*%
%LPD*%
%AMOC8*
5,1,8,0,0,1.08239X$1,22.5*
%
%ADD10C,0.05906*%
%ADD11C,0.08268*%
%ADD12C,0.08250*%
%ADD13C,0.04800*%
%ADD14C,0.06000*%
%ADD15C,0.00600*%
%ADD16C,0.02978*%
%ADD17C,0.02400*%
%ADD18C,0.01600*%
%ADD19C,0.02000*%
D10*
X0074550Y0058226D03*
X0207750Y0195726D03*
D11*
X0150500Y0196726D03*
X0140500Y0196726D03*
X0130500Y0196726D03*
X0125500Y0186726D03*
X0135500Y0186726D03*
X0145500Y0186726D03*
D12*
X0189000Y0177851D02*
X0189000Y0169601D01*
X0209000Y0169601D02*
X0209000Y0177851D01*
D13*
X0094500Y0191476D03*
X0075500Y0191476D03*
D14*
X0048000Y0129726D02*
X0042000Y0129726D01*
X0042000Y0119726D02*
X0048000Y0119726D01*
X0048000Y0109726D02*
X0042000Y0109726D01*
X0042000Y0099726D02*
X0048000Y0099726D01*
X0048000Y0089726D02*
X0042000Y0089726D01*
X0042000Y0079726D02*
X0048000Y0079726D01*
X0048000Y0069726D02*
X0042000Y0069726D01*
X0042000Y0059726D02*
X0048000Y0059726D01*
X0048000Y0049726D02*
X0042000Y0049726D01*
X0042000Y0039726D02*
X0048000Y0039726D01*
X0203750Y0039726D02*
X0209750Y0039726D01*
X0209750Y0049726D02*
X0203750Y0049726D01*
X0203750Y0059726D02*
X0209750Y0059726D01*
X0209750Y0069726D02*
X0203750Y0069726D01*
X0203750Y0079726D02*
X0209750Y0079726D01*
X0209750Y0089726D02*
X0203750Y0089726D01*
X0203750Y0099726D02*
X0209750Y0099726D01*
X0209750Y0109726D02*
X0203750Y0109726D01*
X0203750Y0119726D02*
X0209750Y0119726D01*
X0209750Y0129726D02*
X0203750Y0129726D01*
D15*
X0021300Y0211804D02*
X0021300Y0034276D01*
X0231730Y0034276D01*
X0231730Y0211804D01*
X0021300Y0211804D01*
X0021300Y0211431D02*
X0231730Y0211431D01*
X0231730Y0210833D02*
X0021300Y0210833D01*
X0021300Y0210234D02*
X0231730Y0210234D01*
X0231730Y0209636D02*
X0021300Y0209636D01*
X0021300Y0209037D02*
X0231730Y0209037D01*
X0231730Y0208439D02*
X0021300Y0208439D01*
X0021300Y0207840D02*
X0114663Y0207840D01*
X0114277Y0207681D02*
X0113546Y0206949D01*
X0107296Y0200699D01*
X0106900Y0199744D01*
X0106900Y0190278D01*
X0106712Y0190090D01*
X0106211Y0188881D01*
X0106211Y0187572D01*
X0106712Y0186363D01*
X0107637Y0185438D01*
X0108846Y0184937D01*
X0110154Y0184937D01*
X0111363Y0185438D01*
X0112288Y0186363D01*
X0112789Y0187572D01*
X0112789Y0188881D01*
X0112288Y0190090D01*
X0112100Y0190278D01*
X0112100Y0198150D01*
X0116827Y0202876D01*
X0133673Y0202876D01*
X0135966Y0200584D01*
X0135500Y0200118D01*
X0133861Y0201757D01*
X0131680Y0202660D01*
X0129320Y0202660D01*
X0127139Y0201757D01*
X0125579Y0200197D01*
X0124019Y0201757D01*
X0121838Y0202660D01*
X0119477Y0202660D01*
X0117296Y0201757D01*
X0115627Y0200088D01*
X0114724Y0197907D01*
X0114724Y0195546D01*
X0115627Y0193365D01*
X0117296Y0191696D01*
X0119477Y0190793D01*
X0121174Y0190793D01*
X0120470Y0190088D01*
X0119566Y0187907D01*
X0119566Y0185546D01*
X0120470Y0183365D01*
X0122139Y0181696D01*
X0122803Y0181421D01*
X0123126Y0180640D01*
X0142423Y0161344D01*
X0142558Y0161017D01*
X0143483Y0160092D01*
X0144692Y0159591D01*
X0146001Y0159591D01*
X0147210Y0160092D01*
X0148135Y0161017D01*
X0148635Y0162226D01*
X0148635Y0163534D01*
X0148135Y0164743D01*
X0147210Y0165668D01*
X0146001Y0166169D01*
X0145517Y0166169D01*
X0129426Y0182260D01*
X0130530Y0183365D01*
X0130792Y0183997D01*
X0130853Y0183879D01*
X0131355Y0183187D01*
X0131960Y0182582D01*
X0132652Y0182079D01*
X0133414Y0181691D01*
X0134228Y0181426D01*
X0135072Y0181293D01*
X0135200Y0181293D01*
X0135200Y0186426D01*
X0135800Y0186426D01*
X0135800Y0181293D01*
X0135928Y0181293D01*
X0136772Y0181426D01*
X0137586Y0181691D01*
X0138348Y0182079D01*
X0139040Y0182582D01*
X0139645Y0183187D01*
X0140147Y0183879D01*
X0140208Y0183997D01*
X0140470Y0183365D01*
X0142139Y0181696D01*
X0144320Y0180793D01*
X0146680Y0180793D01*
X0148861Y0181696D01*
X0150421Y0183256D01*
X0151981Y0181696D01*
X0154162Y0180793D01*
X0156523Y0180793D01*
X0158704Y0181696D01*
X0160373Y0183365D01*
X0161276Y0185546D01*
X0161276Y0187907D01*
X0160373Y0190088D01*
X0158704Y0191757D01*
X0156523Y0192660D01*
X0154826Y0192660D01*
X0155530Y0193365D01*
X0156434Y0195546D01*
X0156434Y0197907D01*
X0155530Y0200088D01*
X0153861Y0201757D01*
X0151680Y0202660D01*
X0149320Y0202660D01*
X0147139Y0201757D01*
X0145500Y0200118D01*
X0143861Y0201757D01*
X0141680Y0202660D01*
X0141243Y0202660D01*
X0136223Y0207681D01*
X0135267Y0208076D01*
X0115233Y0208076D01*
X0114277Y0207681D01*
X0113838Y0207242D02*
X0021300Y0207242D01*
X0021300Y0206643D02*
X0113240Y0206643D01*
X0112641Y0206045D02*
X0021300Y0206045D01*
X0021300Y0205446D02*
X0112043Y0205446D01*
X0111444Y0204848D02*
X0021300Y0204848D01*
X0021300Y0204249D02*
X0110846Y0204249D01*
X0110247Y0203651D02*
X0021300Y0203651D01*
X0021300Y0203052D02*
X0109649Y0203052D01*
X0109050Y0202454D02*
X0021300Y0202454D01*
X0021300Y0201855D02*
X0108452Y0201855D01*
X0107853Y0201257D02*
X0021300Y0201257D01*
X0021300Y0200658D02*
X0107279Y0200658D01*
X0107031Y0200060D02*
X0021300Y0200060D01*
X0021300Y0199461D02*
X0106900Y0199461D01*
X0106900Y0198863D02*
X0021300Y0198863D01*
X0021300Y0198264D02*
X0106900Y0198264D01*
X0106900Y0197666D02*
X0021300Y0197666D01*
X0021300Y0197067D02*
X0106900Y0197067D01*
X0106900Y0196469D02*
X0021300Y0196469D01*
X0021300Y0195870D02*
X0106900Y0195870D01*
X0106900Y0195272D02*
X0096313Y0195272D01*
X0096879Y0195037D02*
X0095335Y0195676D01*
X0093665Y0195676D01*
X0092121Y0195037D01*
X0090939Y0193856D01*
X0090300Y0192312D01*
X0090300Y0190641D01*
X0090939Y0189097D01*
X0092121Y0187916D01*
X0093665Y0187276D01*
X0095335Y0187276D01*
X0096879Y0187916D01*
X0098061Y0189097D01*
X0098700Y0190641D01*
X0098700Y0192312D01*
X0098061Y0193856D01*
X0096879Y0195037D01*
X0097243Y0194673D02*
X0106900Y0194673D01*
X0106900Y0194075D02*
X0097842Y0194075D01*
X0098218Y0193476D02*
X0106900Y0193476D01*
X0106900Y0192878D02*
X0098466Y0192878D01*
X0098700Y0192279D02*
X0106900Y0192279D01*
X0106900Y0191680D02*
X0098700Y0191680D01*
X0098700Y0191082D02*
X0106900Y0191082D01*
X0106900Y0190483D02*
X0098635Y0190483D01*
X0098387Y0189885D02*
X0106627Y0189885D01*
X0106379Y0189286D02*
X0098139Y0189286D01*
X0097651Y0188688D02*
X0106211Y0188688D01*
X0106211Y0188089D02*
X0097053Y0188089D01*
X0095853Y0187491D02*
X0106245Y0187491D01*
X0106493Y0186892D02*
X0066827Y0186892D01*
X0067425Y0186294D02*
X0106781Y0186294D01*
X0107380Y0185695D02*
X0068024Y0185695D01*
X0068622Y0185097D02*
X0108461Y0185097D01*
X0110539Y0185097D02*
X0119752Y0185097D01*
X0119566Y0185695D02*
X0111620Y0185695D01*
X0112219Y0186294D02*
X0119566Y0186294D01*
X0119566Y0186892D02*
X0112507Y0186892D01*
X0112755Y0187491D02*
X0119566Y0187491D01*
X0119642Y0188089D02*
X0112789Y0188089D01*
X0112789Y0188688D02*
X0119890Y0188688D01*
X0120138Y0189286D02*
X0112621Y0189286D01*
X0112373Y0189885D02*
X0120386Y0189885D01*
X0120865Y0190483D02*
X0112100Y0190483D01*
X0112100Y0191082D02*
X0118779Y0191082D01*
X0117334Y0191680D02*
X0112100Y0191680D01*
X0112100Y0192279D02*
X0116713Y0192279D01*
X0116115Y0192878D02*
X0112100Y0192878D01*
X0112100Y0193476D02*
X0115581Y0193476D01*
X0115333Y0194075D02*
X0112100Y0194075D01*
X0112100Y0194673D02*
X0115085Y0194673D01*
X0114837Y0195272D02*
X0112100Y0195272D01*
X0112100Y0195870D02*
X0114724Y0195870D01*
X0114724Y0196469D02*
X0112100Y0196469D01*
X0112100Y0197067D02*
X0114724Y0197067D01*
X0114724Y0197666D02*
X0112100Y0197666D01*
X0112215Y0198264D02*
X0114872Y0198264D01*
X0115120Y0198863D02*
X0112813Y0198863D01*
X0113412Y0199461D02*
X0115367Y0199461D01*
X0115615Y0200060D02*
X0114010Y0200060D01*
X0114609Y0200658D02*
X0116197Y0200658D01*
X0116796Y0201257D02*
X0115207Y0201257D01*
X0115806Y0201855D02*
X0117533Y0201855D01*
X0116404Y0202454D02*
X0118978Y0202454D01*
X0122337Y0202454D02*
X0128821Y0202454D01*
X0127376Y0201855D02*
X0123782Y0201855D01*
X0124519Y0201257D02*
X0126638Y0201257D01*
X0126040Y0200658D02*
X0125118Y0200658D01*
X0132179Y0202454D02*
X0134096Y0202454D01*
X0133624Y0201855D02*
X0134694Y0201855D01*
X0134362Y0201257D02*
X0135293Y0201257D01*
X0134960Y0200658D02*
X0135891Y0200658D01*
X0139654Y0204249D02*
X0231730Y0204249D01*
X0231730Y0203651D02*
X0140253Y0203651D01*
X0140851Y0203052D02*
X0205283Y0203052D01*
X0203799Y0202570D02*
X0203799Y0202570D01*
X0206924Y0203586D01*
X0206924Y0203586D01*
X0210192Y0203242D01*
X0210192Y0203242D01*
X0213038Y0201599D01*
X0213038Y0201599D01*
X0213038Y0201599D01*
X0214969Y0198941D01*
X0214969Y0198941D01*
X0215652Y0195726D01*
X0214969Y0192512D01*
X0214969Y0192512D01*
X0213038Y0189854D01*
X0213038Y0189854D01*
X0213038Y0189854D01*
X0210192Y0188211D01*
X0210192Y0188211D01*
X0206924Y0187867D01*
X0206924Y0187867D01*
X0203799Y0188883D01*
X0203799Y0188883D01*
X0201357Y0191082D01*
X0159379Y0191082D01*
X0159977Y0190483D02*
X0202021Y0190483D01*
X0201357Y0191082D02*
X0201357Y0191082D01*
X0201357Y0191082D01*
X0200020Y0194083D01*
X0200020Y0197369D01*
X0201357Y0200371D01*
X0201357Y0200371D01*
X0203799Y0202570D01*
X0203670Y0202454D02*
X0152179Y0202454D01*
X0153624Y0201855D02*
X0203005Y0201855D01*
X0202340Y0201257D02*
X0154362Y0201257D01*
X0154960Y0200658D02*
X0201675Y0200658D01*
X0201218Y0200060D02*
X0155542Y0200060D01*
X0155790Y0199461D02*
X0200952Y0199461D01*
X0200685Y0198863D02*
X0156038Y0198863D01*
X0156286Y0198264D02*
X0200419Y0198264D01*
X0200152Y0197666D02*
X0156434Y0197666D01*
X0156434Y0197067D02*
X0200020Y0197067D01*
X0200020Y0196469D02*
X0156434Y0196469D01*
X0156434Y0195870D02*
X0200020Y0195870D01*
X0200020Y0195272D02*
X0156320Y0195272D01*
X0156072Y0194673D02*
X0200020Y0194673D01*
X0200024Y0194075D02*
X0155824Y0194075D01*
X0155576Y0193476D02*
X0200291Y0193476D01*
X0200557Y0192878D02*
X0155043Y0192878D01*
X0157443Y0192279D02*
X0200824Y0192279D01*
X0201090Y0191680D02*
X0158780Y0191680D01*
X0160457Y0189885D02*
X0202686Y0189885D01*
X0203351Y0189286D02*
X0160705Y0189286D01*
X0160953Y0188688D02*
X0204399Y0188688D01*
X0206241Y0188089D02*
X0161201Y0188089D01*
X0161276Y0187491D02*
X0231730Y0187491D01*
X0231730Y0188089D02*
X0209036Y0188089D01*
X0211018Y0188688D02*
X0231730Y0188688D01*
X0231730Y0189286D02*
X0212055Y0189286D01*
X0213060Y0189885D02*
X0231730Y0189885D01*
X0231730Y0190483D02*
X0213495Y0190483D01*
X0213930Y0191082D02*
X0231730Y0191082D01*
X0231730Y0191680D02*
X0214365Y0191680D01*
X0214800Y0192279D02*
X0231730Y0192279D01*
X0231730Y0192878D02*
X0215047Y0192878D01*
X0215174Y0193476D02*
X0231730Y0193476D01*
X0231730Y0194075D02*
X0215301Y0194075D01*
X0215428Y0194673D02*
X0231730Y0194673D01*
X0231730Y0195272D02*
X0215556Y0195272D01*
X0215622Y0195870D02*
X0231730Y0195870D01*
X0231730Y0196469D02*
X0215495Y0196469D01*
X0215367Y0197067D02*
X0231730Y0197067D01*
X0231730Y0197666D02*
X0215240Y0197666D01*
X0215113Y0198264D02*
X0231730Y0198264D01*
X0231730Y0198863D02*
X0214986Y0198863D01*
X0214591Y0199461D02*
X0231730Y0199461D01*
X0231730Y0200060D02*
X0214156Y0200060D01*
X0213721Y0200658D02*
X0231730Y0200658D01*
X0231730Y0201257D02*
X0213286Y0201257D01*
X0212594Y0201855D02*
X0231730Y0201855D01*
X0231730Y0202454D02*
X0211557Y0202454D01*
X0210521Y0203052D02*
X0231730Y0203052D01*
X0231730Y0204848D02*
X0139056Y0204848D01*
X0138457Y0205446D02*
X0231730Y0205446D01*
X0231730Y0206045D02*
X0137859Y0206045D01*
X0137260Y0206643D02*
X0231730Y0206643D01*
X0231730Y0207242D02*
X0136662Y0207242D01*
X0135837Y0207840D02*
X0231730Y0207840D01*
X0231730Y0186892D02*
X0161276Y0186892D01*
X0161276Y0186294D02*
X0231730Y0186294D01*
X0231730Y0185695D02*
X0161276Y0185695D01*
X0161090Y0185097D02*
X0231730Y0185097D01*
X0231730Y0184498D02*
X0160842Y0184498D01*
X0160594Y0183900D02*
X0231730Y0183900D01*
X0231730Y0183301D02*
X0211326Y0183301D01*
X0212356Y0182874D02*
X0210179Y0183776D01*
X0207821Y0183776D01*
X0205644Y0182874D01*
X0203977Y0181208D01*
X0203075Y0179030D01*
X0203075Y0168423D01*
X0203977Y0166245D01*
X0205644Y0164579D01*
X0207821Y0163676D01*
X0210179Y0163676D01*
X0212356Y0164579D01*
X0214023Y0166245D01*
X0214925Y0168423D01*
X0214925Y0179030D01*
X0214023Y0181208D01*
X0212356Y0182874D01*
X0212528Y0182703D02*
X0231730Y0182703D01*
X0231730Y0182104D02*
X0213126Y0182104D01*
X0213725Y0181506D02*
X0231730Y0181506D01*
X0231730Y0180907D02*
X0214147Y0180907D01*
X0214395Y0180309D02*
X0231730Y0180309D01*
X0231730Y0179710D02*
X0214643Y0179710D01*
X0214891Y0179112D02*
X0231730Y0179112D01*
X0231730Y0178513D02*
X0214925Y0178513D01*
X0214925Y0177915D02*
X0231730Y0177915D01*
X0231730Y0177316D02*
X0214925Y0177316D01*
X0214925Y0176718D02*
X0231730Y0176718D01*
X0231730Y0176119D02*
X0214925Y0176119D01*
X0214925Y0175521D02*
X0231730Y0175521D01*
X0231730Y0174922D02*
X0214925Y0174922D01*
X0214925Y0174324D02*
X0231730Y0174324D01*
X0231730Y0173725D02*
X0214925Y0173725D01*
X0214925Y0173127D02*
X0231730Y0173127D01*
X0231730Y0172528D02*
X0214925Y0172528D01*
X0214925Y0171930D02*
X0231730Y0171930D01*
X0231730Y0171331D02*
X0214925Y0171331D01*
X0214925Y0170733D02*
X0231730Y0170733D01*
X0231730Y0170134D02*
X0214925Y0170134D01*
X0214925Y0169536D02*
X0231730Y0169536D01*
X0231730Y0168937D02*
X0214925Y0168937D01*
X0214890Y0168339D02*
X0231730Y0168339D01*
X0231730Y0167740D02*
X0214642Y0167740D01*
X0214394Y0167142D02*
X0231730Y0167142D01*
X0231730Y0166543D02*
X0214146Y0166543D01*
X0213722Y0165945D02*
X0231730Y0165945D01*
X0231730Y0165346D02*
X0213124Y0165346D01*
X0212525Y0164747D02*
X0231730Y0164747D01*
X0231730Y0164149D02*
X0211319Y0164149D01*
X0206681Y0164149D02*
X0148381Y0164149D01*
X0148629Y0163550D02*
X0231730Y0163550D01*
X0231730Y0162952D02*
X0148635Y0162952D01*
X0148635Y0162353D02*
X0231730Y0162353D01*
X0231730Y0161755D02*
X0148440Y0161755D01*
X0148192Y0161156D02*
X0231730Y0161156D01*
X0231730Y0160558D02*
X0147676Y0160558D01*
X0146890Y0159959D02*
X0231730Y0159959D01*
X0231730Y0159361D02*
X0127108Y0159361D01*
X0126510Y0159959D02*
X0143803Y0159959D01*
X0143017Y0160558D02*
X0125911Y0160558D01*
X0125313Y0161156D02*
X0142500Y0161156D01*
X0142012Y0161755D02*
X0124714Y0161755D01*
X0124116Y0162353D02*
X0141413Y0162353D01*
X0140815Y0162952D02*
X0123517Y0162952D01*
X0122919Y0163550D02*
X0140216Y0163550D01*
X0139618Y0164149D02*
X0122320Y0164149D01*
X0121722Y0164747D02*
X0139019Y0164747D01*
X0138421Y0165346D02*
X0121123Y0165346D01*
X0120793Y0165676D02*
X0119949Y0166520D01*
X0118847Y0166976D01*
X0073993Y0166976D01*
X0070500Y0170469D01*
X0070500Y0182573D01*
X0070043Y0183676D01*
X0063077Y0190642D01*
X0062788Y0191340D01*
X0061863Y0192265D01*
X0060654Y0192765D01*
X0059346Y0192765D01*
X0058137Y0192265D01*
X0057212Y0191340D01*
X0056711Y0190131D01*
X0056711Y0188822D01*
X0057212Y0187613D01*
X0058137Y0186688D01*
X0058835Y0186399D01*
X0064500Y0180734D01*
X0064500Y0168630D01*
X0064957Y0167527D01*
X0065801Y0166683D01*
X0070207Y0162277D01*
X0071051Y0161433D01*
X0072153Y0160976D01*
X0117007Y0160976D01*
X0134557Y0143426D01*
X0134557Y0142726D01*
X0135058Y0141517D01*
X0135983Y0140592D01*
X0137192Y0140091D01*
X0138501Y0140091D01*
X0139710Y0140592D01*
X0140635Y0141517D01*
X0141135Y0142726D01*
X0141135Y0144034D01*
X0140846Y0144732D01*
X0140846Y0144977D01*
X0140390Y0146079D01*
X0120793Y0165676D01*
X0120525Y0165945D02*
X0137822Y0165945D01*
X0137224Y0166543D02*
X0119893Y0166543D01*
X0117426Y0160558D02*
X0021300Y0160558D01*
X0021300Y0161156D02*
X0071719Y0161156D01*
X0070729Y0161755D02*
X0021300Y0161755D01*
X0021300Y0162353D02*
X0070130Y0162353D01*
X0070207Y0162277D02*
X0070207Y0162277D01*
X0069532Y0162952D02*
X0021300Y0162952D01*
X0021300Y0163550D02*
X0068933Y0163550D01*
X0068335Y0164149D02*
X0021300Y0164149D01*
X0021300Y0164747D02*
X0067736Y0164747D01*
X0067138Y0165346D02*
X0021300Y0165346D01*
X0021300Y0165945D02*
X0066539Y0165945D01*
X0065941Y0166543D02*
X0021300Y0166543D01*
X0021300Y0167142D02*
X0065342Y0167142D01*
X0064869Y0167740D02*
X0021300Y0167740D01*
X0021300Y0168339D02*
X0064621Y0168339D01*
X0064500Y0168937D02*
X0021300Y0168937D01*
X0021300Y0169536D02*
X0064500Y0169536D01*
X0064500Y0170134D02*
X0021300Y0170134D01*
X0021300Y0170733D02*
X0064500Y0170733D01*
X0064500Y0171331D02*
X0021300Y0171331D01*
X0021300Y0171930D02*
X0064500Y0171930D01*
X0064500Y0172528D02*
X0021300Y0172528D01*
X0021300Y0173127D02*
X0064500Y0173127D01*
X0064500Y0173725D02*
X0021300Y0173725D01*
X0021300Y0174324D02*
X0064500Y0174324D01*
X0064500Y0174922D02*
X0021300Y0174922D01*
X0021300Y0175521D02*
X0064500Y0175521D01*
X0064500Y0176119D02*
X0021300Y0176119D01*
X0021300Y0176718D02*
X0064500Y0176718D01*
X0064500Y0177316D02*
X0021300Y0177316D01*
X0021300Y0177915D02*
X0064500Y0177915D01*
X0064500Y0178513D02*
X0021300Y0178513D01*
X0021300Y0179112D02*
X0064500Y0179112D01*
X0064500Y0179710D02*
X0021300Y0179710D01*
X0021300Y0180309D02*
X0064500Y0180309D01*
X0064327Y0180907D02*
X0021300Y0180907D01*
X0021300Y0181506D02*
X0063728Y0181506D01*
X0063130Y0182104D02*
X0021300Y0182104D01*
X0021300Y0182703D02*
X0062531Y0182703D01*
X0061932Y0183301D02*
X0021300Y0183301D01*
X0021300Y0183900D02*
X0061334Y0183900D01*
X0060735Y0184498D02*
X0021300Y0184498D01*
X0021300Y0185097D02*
X0060137Y0185097D01*
X0059538Y0185695D02*
X0021300Y0185695D01*
X0021300Y0186294D02*
X0058940Y0186294D01*
X0057933Y0186892D02*
X0021300Y0186892D01*
X0021300Y0187491D02*
X0057334Y0187491D01*
X0057015Y0188089D02*
X0021300Y0188089D01*
X0021300Y0188688D02*
X0056767Y0188688D01*
X0056711Y0189286D02*
X0021300Y0189286D01*
X0021300Y0189885D02*
X0056711Y0189885D01*
X0056857Y0190483D02*
X0021300Y0190483D01*
X0021300Y0191082D02*
X0057105Y0191082D01*
X0057553Y0191680D02*
X0021300Y0191680D01*
X0021300Y0192279D02*
X0058171Y0192279D01*
X0061829Y0192279D02*
X0071300Y0192279D01*
X0071300Y0192312D02*
X0071300Y0190641D01*
X0071939Y0189097D01*
X0073121Y0187916D01*
X0074665Y0187276D01*
X0076335Y0187276D01*
X0077879Y0187916D01*
X0079061Y0189097D01*
X0079700Y0190641D01*
X0079700Y0192312D01*
X0079061Y0193856D01*
X0077879Y0195037D01*
X0076335Y0195676D01*
X0074665Y0195676D01*
X0073121Y0195037D01*
X0071939Y0193856D01*
X0071300Y0192312D01*
X0071534Y0192878D02*
X0021300Y0192878D01*
X0021300Y0193476D02*
X0071782Y0193476D01*
X0072158Y0194075D02*
X0021300Y0194075D01*
X0021300Y0194673D02*
X0072757Y0194673D01*
X0073687Y0195272D02*
X0021300Y0195272D01*
X0021300Y0159959D02*
X0118024Y0159959D01*
X0118623Y0159361D02*
X0021300Y0159361D01*
X0021300Y0158762D02*
X0119221Y0158762D01*
X0119820Y0158164D02*
X0021300Y0158164D01*
X0021300Y0157565D02*
X0120418Y0157565D01*
X0121017Y0156967D02*
X0021300Y0156967D01*
X0021300Y0156368D02*
X0121616Y0156368D01*
X0122214Y0155770D02*
X0021300Y0155770D01*
X0021300Y0155171D02*
X0122813Y0155171D01*
X0123411Y0154573D02*
X0021300Y0154573D01*
X0021300Y0153974D02*
X0124010Y0153974D01*
X0124608Y0153376D02*
X0021300Y0153376D01*
X0021300Y0152777D02*
X0125207Y0152777D01*
X0125805Y0152179D02*
X0021300Y0152179D01*
X0021300Y0151580D02*
X0126404Y0151580D01*
X0127002Y0150982D02*
X0021300Y0150982D01*
X0021300Y0150383D02*
X0127601Y0150383D01*
X0128199Y0149785D02*
X0021300Y0149785D01*
X0021300Y0149186D02*
X0128798Y0149186D01*
X0129396Y0148588D02*
X0021300Y0148588D01*
X0021300Y0147989D02*
X0129995Y0147989D01*
X0130593Y0147391D02*
X0021300Y0147391D01*
X0021300Y0146792D02*
X0131192Y0146792D01*
X0131790Y0146194D02*
X0021300Y0146194D01*
X0021300Y0145595D02*
X0132389Y0145595D01*
X0132987Y0144997D02*
X0021300Y0144997D01*
X0021300Y0144398D02*
X0133586Y0144398D01*
X0134184Y0143800D02*
X0021300Y0143800D01*
X0021300Y0143201D02*
X0134557Y0143201D01*
X0134609Y0142603D02*
X0021300Y0142603D01*
X0021300Y0142004D02*
X0134856Y0142004D01*
X0135170Y0141406D02*
X0021300Y0141406D01*
X0021300Y0140807D02*
X0135768Y0140807D01*
X0136909Y0140209D02*
X0021300Y0140209D01*
X0021300Y0139610D02*
X0231730Y0139610D01*
X0231730Y0139011D02*
X0021300Y0139011D01*
X0021300Y0138413D02*
X0231730Y0138413D01*
X0231730Y0137814D02*
X0021300Y0137814D01*
X0021300Y0137216D02*
X0231730Y0137216D01*
X0231730Y0136617D02*
X0021300Y0136617D01*
X0021300Y0136019D02*
X0231730Y0136019D01*
X0231730Y0135420D02*
X0021300Y0135420D01*
X0021300Y0134822D02*
X0231730Y0134822D01*
X0231730Y0134223D02*
X0211436Y0134223D01*
X0210705Y0134526D02*
X0212469Y0133796D01*
X0213819Y0132445D01*
X0214550Y0130681D01*
X0214550Y0128772D01*
X0213819Y0127007D01*
X0212469Y0125657D01*
X0210705Y0124926D01*
X0202795Y0124926D01*
X0201031Y0125657D01*
X0199681Y0127007D01*
X0198950Y0128772D01*
X0198950Y0130681D01*
X0199681Y0132445D01*
X0201031Y0133796D01*
X0202795Y0134526D01*
X0210705Y0134526D01*
X0212640Y0133625D02*
X0231730Y0133625D01*
X0231730Y0133026D02*
X0213238Y0133026D01*
X0213827Y0132428D02*
X0231730Y0132428D01*
X0231730Y0131829D02*
X0214074Y0131829D01*
X0214322Y0131231D02*
X0231730Y0131231D01*
X0231730Y0130632D02*
X0214550Y0130632D01*
X0214550Y0130034D02*
X0231730Y0130034D01*
X0231730Y0129435D02*
X0214550Y0129435D01*
X0214550Y0128837D02*
X0231730Y0128837D01*
X0231730Y0128238D02*
X0214329Y0128238D01*
X0214081Y0127640D02*
X0231730Y0127640D01*
X0231730Y0127041D02*
X0213833Y0127041D01*
X0213254Y0126443D02*
X0231730Y0126443D01*
X0231730Y0125844D02*
X0212656Y0125844D01*
X0211476Y0125246D02*
X0231730Y0125246D01*
X0231730Y0124647D02*
X0021300Y0124647D01*
X0021300Y0124049D02*
X0039892Y0124049D01*
X0039281Y0123796D02*
X0037931Y0122445D01*
X0037200Y0120681D01*
X0037200Y0118772D01*
X0037931Y0117007D01*
X0039281Y0115657D01*
X0041045Y0114926D01*
X0048955Y0114926D01*
X0050719Y0115657D01*
X0051788Y0116726D01*
X0199962Y0116726D01*
X0201031Y0115657D01*
X0202795Y0114926D01*
X0210705Y0114926D01*
X0212469Y0115657D01*
X0213819Y0117007D01*
X0214550Y0118772D01*
X0214550Y0120681D01*
X0213819Y0122445D01*
X0212469Y0123796D01*
X0210705Y0124526D01*
X0202795Y0124526D01*
X0201031Y0123796D01*
X0199962Y0122726D01*
X0051788Y0122726D01*
X0050719Y0123796D01*
X0048955Y0124526D01*
X0041045Y0124526D01*
X0039281Y0123796D01*
X0038936Y0123450D02*
X0021300Y0123450D01*
X0021300Y0122852D02*
X0038337Y0122852D01*
X0037851Y0122253D02*
X0021300Y0122253D01*
X0021300Y0121655D02*
X0037603Y0121655D01*
X0037355Y0121056D02*
X0021300Y0121056D01*
X0021300Y0120458D02*
X0037200Y0120458D01*
X0037200Y0119859D02*
X0021300Y0119859D01*
X0021300Y0119261D02*
X0037200Y0119261D01*
X0037245Y0118662D02*
X0021300Y0118662D01*
X0021300Y0118064D02*
X0037493Y0118064D01*
X0037741Y0117465D02*
X0021300Y0117465D01*
X0021300Y0116867D02*
X0038072Y0116867D01*
X0038670Y0116268D02*
X0021300Y0116268D01*
X0021300Y0115670D02*
X0039269Y0115670D01*
X0040696Y0115071D02*
X0021300Y0115071D01*
X0021300Y0114473D02*
X0040915Y0114473D01*
X0041045Y0114526D02*
X0039281Y0113796D01*
X0037931Y0112445D01*
X0037200Y0110681D01*
X0037200Y0108772D01*
X0037931Y0107007D01*
X0039281Y0105657D01*
X0041045Y0104926D01*
X0048955Y0104926D01*
X0050719Y0105657D01*
X0051788Y0106726D01*
X0199962Y0106726D01*
X0201031Y0105657D01*
X0202795Y0104926D01*
X0210705Y0104926D01*
X0212469Y0105657D01*
X0213819Y0107007D01*
X0214550Y0108772D01*
X0214550Y0110681D01*
X0213819Y0112445D01*
X0212469Y0113796D01*
X0210705Y0114526D01*
X0202795Y0114526D01*
X0201031Y0113796D01*
X0199962Y0112726D01*
X0051788Y0112726D01*
X0050719Y0113796D01*
X0048955Y0114526D01*
X0041045Y0114526D01*
X0039470Y0113874D02*
X0021300Y0113874D01*
X0021300Y0113276D02*
X0038761Y0113276D01*
X0038162Y0112677D02*
X0021300Y0112677D01*
X0021300Y0112078D02*
X0037779Y0112078D01*
X0037531Y0111480D02*
X0021300Y0111480D01*
X0021300Y0110881D02*
X0037283Y0110881D01*
X0037200Y0110283D02*
X0021300Y0110283D01*
X0021300Y0109684D02*
X0037200Y0109684D01*
X0037200Y0109086D02*
X0021300Y0109086D01*
X0021300Y0108487D02*
X0037318Y0108487D01*
X0037566Y0107889D02*
X0021300Y0107889D01*
X0021300Y0107290D02*
X0037814Y0107290D01*
X0038246Y0106692D02*
X0021300Y0106692D01*
X0021300Y0106093D02*
X0038845Y0106093D01*
X0039673Y0105495D02*
X0021300Y0105495D01*
X0021300Y0104896D02*
X0231730Y0104896D01*
X0231730Y0104298D02*
X0211257Y0104298D01*
X0210705Y0104526D02*
X0212469Y0103796D01*
X0213819Y0102445D01*
X0214550Y0100681D01*
X0214550Y0098772D01*
X0213819Y0097007D01*
X0212469Y0095657D01*
X0210705Y0094926D01*
X0202795Y0094926D01*
X0201031Y0095657D01*
X0199962Y0096726D01*
X0051788Y0096726D01*
X0050719Y0095657D01*
X0048955Y0094926D01*
X0041045Y0094926D01*
X0039281Y0095657D01*
X0037931Y0097007D01*
X0037200Y0098772D01*
X0037200Y0100681D01*
X0037931Y0102445D01*
X0039281Y0103796D01*
X0041045Y0104526D01*
X0048955Y0104526D01*
X0050719Y0103796D01*
X0051788Y0102726D01*
X0199962Y0102726D01*
X0201031Y0103796D01*
X0202795Y0104526D01*
X0210705Y0104526D01*
X0212077Y0105495D02*
X0231730Y0105495D01*
X0231730Y0106093D02*
X0212905Y0106093D01*
X0213504Y0106692D02*
X0231730Y0106692D01*
X0231730Y0107290D02*
X0213936Y0107290D01*
X0214184Y0107889D02*
X0231730Y0107889D01*
X0231730Y0108487D02*
X0214432Y0108487D01*
X0214550Y0109086D02*
X0231730Y0109086D01*
X0231730Y0109684D02*
X0214550Y0109684D01*
X0214550Y0110283D02*
X0231730Y0110283D01*
X0231730Y0110881D02*
X0214467Y0110881D01*
X0214219Y0111480D02*
X0231730Y0111480D01*
X0231730Y0112078D02*
X0213971Y0112078D01*
X0213588Y0112677D02*
X0231730Y0112677D01*
X0231730Y0113276D02*
X0212989Y0113276D01*
X0212280Y0113874D02*
X0231730Y0113874D01*
X0231730Y0114473D02*
X0210835Y0114473D01*
X0211054Y0115071D02*
X0231730Y0115071D01*
X0231730Y0115670D02*
X0212481Y0115670D01*
X0213080Y0116268D02*
X0231730Y0116268D01*
X0231730Y0116867D02*
X0213678Y0116867D01*
X0214009Y0117465D02*
X0231730Y0117465D01*
X0231730Y0118064D02*
X0214257Y0118064D01*
X0214505Y0118662D02*
X0231730Y0118662D01*
X0231730Y0119261D02*
X0214550Y0119261D01*
X0214550Y0119859D02*
X0231730Y0119859D01*
X0231730Y0120458D02*
X0214550Y0120458D01*
X0214395Y0121056D02*
X0231730Y0121056D01*
X0231730Y0121655D02*
X0214147Y0121655D01*
X0213899Y0122253D02*
X0231730Y0122253D01*
X0231730Y0122852D02*
X0213413Y0122852D01*
X0212814Y0123450D02*
X0231730Y0123450D01*
X0231730Y0124049D02*
X0211858Y0124049D01*
X0202024Y0125246D02*
X0049726Y0125246D01*
X0048955Y0124926D02*
X0050719Y0125657D01*
X0052069Y0127007D01*
X0052800Y0128772D01*
X0052800Y0130681D01*
X0052069Y0132445D01*
X0050719Y0133796D01*
X0048955Y0134526D01*
X0041045Y0134526D01*
X0039281Y0133796D01*
X0037931Y0132445D01*
X0037200Y0130681D01*
X0037200Y0128772D01*
X0037931Y0127007D01*
X0039281Y0125657D01*
X0041045Y0124926D01*
X0048955Y0124926D01*
X0050108Y0124049D02*
X0201642Y0124049D01*
X0200686Y0123450D02*
X0051064Y0123450D01*
X0051663Y0122852D02*
X0200087Y0122852D01*
X0200844Y0125844D02*
X0050906Y0125844D01*
X0051504Y0126443D02*
X0200245Y0126443D01*
X0199667Y0127041D02*
X0052083Y0127041D01*
X0052331Y0127640D02*
X0199419Y0127640D01*
X0199171Y0128238D02*
X0052579Y0128238D01*
X0052800Y0128837D02*
X0198950Y0128837D01*
X0198950Y0129435D02*
X0052800Y0129435D01*
X0052800Y0130034D02*
X0198950Y0130034D01*
X0198950Y0130632D02*
X0052800Y0130632D01*
X0052572Y0131231D02*
X0199178Y0131231D01*
X0199426Y0131829D02*
X0052324Y0131829D01*
X0052077Y0132428D02*
X0199673Y0132428D01*
X0200262Y0133026D02*
X0051488Y0133026D01*
X0050890Y0133625D02*
X0200860Y0133625D01*
X0202064Y0134223D02*
X0049686Y0134223D01*
X0040314Y0134223D02*
X0021300Y0134223D01*
X0021300Y0133625D02*
X0039110Y0133625D01*
X0038512Y0133026D02*
X0021300Y0133026D01*
X0021300Y0132428D02*
X0037923Y0132428D01*
X0037676Y0131829D02*
X0021300Y0131829D01*
X0021300Y0131231D02*
X0037428Y0131231D01*
X0037200Y0130632D02*
X0021300Y0130632D01*
X0021300Y0130034D02*
X0037200Y0130034D01*
X0037200Y0129435D02*
X0021300Y0129435D01*
X0021300Y0128837D02*
X0037200Y0128837D01*
X0037421Y0128238D02*
X0021300Y0128238D01*
X0021300Y0127640D02*
X0037669Y0127640D01*
X0037917Y0127041D02*
X0021300Y0127041D01*
X0021300Y0126443D02*
X0038495Y0126443D01*
X0039094Y0125844D02*
X0021300Y0125844D01*
X0021300Y0125246D02*
X0040274Y0125246D01*
X0049304Y0115071D02*
X0202446Y0115071D01*
X0202665Y0114473D02*
X0049085Y0114473D01*
X0050530Y0113874D02*
X0201220Y0113874D01*
X0200511Y0113276D02*
X0051239Y0113276D01*
X0050731Y0115670D02*
X0201019Y0115670D01*
X0200420Y0116268D02*
X0051330Y0116268D01*
X0051754Y0106692D02*
X0199996Y0106692D01*
X0200595Y0106093D02*
X0051155Y0106093D01*
X0050327Y0105495D02*
X0201423Y0105495D01*
X0202243Y0104298D02*
X0049507Y0104298D01*
X0050815Y0103699D02*
X0200935Y0103699D01*
X0200336Y0103101D02*
X0051414Y0103101D01*
X0051579Y0096517D02*
X0200171Y0096517D01*
X0200770Y0095919D02*
X0050980Y0095919D01*
X0049905Y0095320D02*
X0125624Y0095320D01*
X0126096Y0095515D02*
X0124887Y0095015D01*
X0123962Y0094090D01*
X0123461Y0092881D01*
X0123461Y0091572D01*
X0123962Y0090363D01*
X0124887Y0089438D01*
X0126002Y0088976D01*
X0118243Y0088976D01*
X0114949Y0092270D01*
X0113847Y0092726D01*
X0051788Y0092726D01*
X0050719Y0093796D01*
X0048955Y0094526D01*
X0041045Y0094526D01*
X0039281Y0093796D01*
X0037931Y0092445D01*
X0037200Y0090681D01*
X0037200Y0088772D01*
X0037931Y0087007D01*
X0039281Y0085657D01*
X0041045Y0084926D01*
X0048955Y0084926D01*
X0050719Y0085657D01*
X0051788Y0086726D01*
X0112007Y0086726D01*
X0114457Y0084277D01*
X0115301Y0083433D01*
X0116403Y0082976D01*
X0189097Y0082976D01*
X0190199Y0083433D01*
X0193493Y0086726D01*
X0199962Y0086726D01*
X0201031Y0085657D01*
X0202795Y0084926D01*
X0210705Y0084926D01*
X0212469Y0085657D01*
X0213819Y0087007D01*
X0214550Y0088772D01*
X0214550Y0090681D01*
X0213819Y0092445D01*
X0212469Y0093796D01*
X0210705Y0094526D01*
X0202795Y0094526D01*
X0201031Y0093796D01*
X0199962Y0092726D01*
X0191653Y0092726D01*
X0190551Y0092270D01*
X0189707Y0091426D01*
X0187257Y0088976D01*
X0127498Y0088976D01*
X0128102Y0089226D01*
X0151086Y0089226D01*
X0151651Y0088993D01*
X0152959Y0088993D01*
X0154168Y0089493D01*
X0155093Y0090419D01*
X0155594Y0091627D01*
X0155594Y0092936D01*
X0155093Y0094145D01*
X0154168Y0095070D01*
X0152959Y0095571D01*
X0151651Y0095571D01*
X0150820Y0095226D01*
X0128102Y0095226D01*
X0127404Y0095515D01*
X0126096Y0095515D01*
X0124594Y0094722D02*
X0021300Y0094722D01*
X0021300Y0095320D02*
X0040095Y0095320D01*
X0040072Y0094123D02*
X0021300Y0094123D01*
X0021300Y0093525D02*
X0039010Y0093525D01*
X0038411Y0092926D02*
X0021300Y0092926D01*
X0021300Y0092328D02*
X0037882Y0092328D01*
X0037634Y0091729D02*
X0021300Y0091729D01*
X0021300Y0091131D02*
X0037386Y0091131D01*
X0037200Y0090532D02*
X0021300Y0090532D01*
X0021300Y0089934D02*
X0037200Y0089934D01*
X0037200Y0089335D02*
X0021300Y0089335D01*
X0021300Y0088737D02*
X0037215Y0088737D01*
X0037462Y0088138D02*
X0021300Y0088138D01*
X0021300Y0087540D02*
X0037710Y0087540D01*
X0037997Y0086941D02*
X0021300Y0086941D01*
X0021300Y0086342D02*
X0038596Y0086342D01*
X0039194Y0085744D02*
X0021300Y0085744D01*
X0021300Y0085145D02*
X0040517Y0085145D01*
X0041045Y0084526D02*
X0039281Y0083796D01*
X0037931Y0082445D01*
X0037200Y0080681D01*
X0037200Y0078772D01*
X0037931Y0077007D01*
X0039281Y0075657D01*
X0041045Y0074926D01*
X0048955Y0074926D01*
X0050719Y0075657D01*
X0051788Y0076726D01*
X0199962Y0076726D01*
X0201031Y0075657D01*
X0202795Y0074926D01*
X0210705Y0074926D01*
X0212469Y0075657D01*
X0213819Y0077007D01*
X0214550Y0078772D01*
X0214550Y0080681D01*
X0213819Y0082445D01*
X0212469Y0083796D01*
X0210705Y0084526D01*
X0202795Y0084526D01*
X0201031Y0083796D01*
X0199962Y0082726D01*
X0051788Y0082726D01*
X0050719Y0083796D01*
X0048955Y0084526D01*
X0041045Y0084526D01*
X0039650Y0083948D02*
X0021300Y0083948D01*
X0021300Y0083350D02*
X0038835Y0083350D01*
X0038237Y0082751D02*
X0021300Y0082751D01*
X0021300Y0082153D02*
X0037810Y0082153D01*
X0037562Y0081554D02*
X0021300Y0081554D01*
X0021300Y0080956D02*
X0037314Y0080956D01*
X0037200Y0080357D02*
X0021300Y0080357D01*
X0021300Y0079759D02*
X0037200Y0079759D01*
X0037200Y0079160D02*
X0021300Y0079160D01*
X0021300Y0078562D02*
X0037287Y0078562D01*
X0037535Y0077963D02*
X0021300Y0077963D01*
X0021300Y0077365D02*
X0037783Y0077365D01*
X0038172Y0076766D02*
X0021300Y0076766D01*
X0021300Y0076168D02*
X0038770Y0076168D01*
X0039493Y0075569D02*
X0021300Y0075569D01*
X0021300Y0074971D02*
X0040938Y0074971D01*
X0041045Y0074526D02*
X0039281Y0073796D01*
X0037931Y0072445D01*
X0037200Y0070681D01*
X0037200Y0068772D01*
X0037931Y0067007D01*
X0039281Y0065657D01*
X0041045Y0064926D01*
X0048955Y0064926D01*
X0050719Y0065657D01*
X0052069Y0067007D01*
X0052800Y0068772D01*
X0052800Y0070681D01*
X0052069Y0072445D01*
X0050719Y0073796D01*
X0048955Y0074526D01*
X0041045Y0074526D01*
X0040673Y0074372D02*
X0021300Y0074372D01*
X0021300Y0073774D02*
X0039259Y0073774D01*
X0038661Y0073175D02*
X0021300Y0073175D01*
X0021300Y0072577D02*
X0038062Y0072577D01*
X0037737Y0071978D02*
X0021300Y0071978D01*
X0021300Y0071380D02*
X0037489Y0071380D01*
X0037241Y0070781D02*
X0021300Y0070781D01*
X0021300Y0070183D02*
X0037200Y0070183D01*
X0037200Y0069584D02*
X0021300Y0069584D01*
X0021300Y0068986D02*
X0037200Y0068986D01*
X0037359Y0068387D02*
X0021300Y0068387D01*
X0021300Y0067789D02*
X0037607Y0067789D01*
X0037855Y0067190D02*
X0021300Y0067190D01*
X0021300Y0066592D02*
X0038347Y0066592D01*
X0038945Y0065993D02*
X0021300Y0065993D01*
X0021300Y0065395D02*
X0039915Y0065395D01*
X0040251Y0064198D02*
X0021300Y0064198D01*
X0021300Y0064796D02*
X0070294Y0064796D01*
X0070599Y0065070D02*
X0068157Y0062871D01*
X0066820Y0059869D01*
X0066820Y0056583D01*
X0068157Y0053582D01*
X0068157Y0053582D01*
X0070599Y0051383D01*
X0073724Y0050367D01*
X0076992Y0050711D01*
X0079838Y0052354D01*
X0081769Y0055012D01*
X0081769Y0055012D01*
X0082452Y0058226D01*
X0081769Y0061441D01*
X0079838Y0064099D01*
X0079838Y0064099D01*
X0079838Y0064099D01*
X0076992Y0065742D01*
X0073724Y0066086D01*
X0070599Y0065070D01*
X0070599Y0065070D01*
X0071597Y0065395D02*
X0050085Y0065395D01*
X0051055Y0065993D02*
X0073440Y0065993D01*
X0073724Y0066086D02*
X0073724Y0066086D01*
X0074603Y0065993D02*
X0200695Y0065993D01*
X0201031Y0065657D02*
X0202795Y0064926D01*
X0210705Y0064926D01*
X0212469Y0065657D01*
X0213819Y0067007D01*
X0214550Y0068772D01*
X0214550Y0070681D01*
X0213819Y0072445D01*
X0212469Y0073796D01*
X0210705Y0074526D01*
X0202795Y0074526D01*
X0201031Y0073796D01*
X0199681Y0072445D01*
X0198950Y0070681D01*
X0198950Y0068772D01*
X0199681Y0067007D01*
X0201031Y0065657D01*
X0201665Y0065395D02*
X0077594Y0065395D01*
X0076992Y0065742D02*
X0076992Y0065742D01*
X0078630Y0064796D02*
X0231730Y0064796D01*
X0231730Y0064198D02*
X0211499Y0064198D01*
X0210705Y0064526D02*
X0212469Y0063796D01*
X0213819Y0062445D01*
X0214550Y0060681D01*
X0214550Y0058772D01*
X0213819Y0057007D01*
X0212469Y0055657D01*
X0210705Y0054926D01*
X0202795Y0054926D01*
X0201031Y0055657D01*
X0199681Y0057007D01*
X0198950Y0058772D01*
X0198950Y0060681D01*
X0199681Y0062445D01*
X0201031Y0063796D01*
X0202795Y0064526D01*
X0210705Y0064526D01*
X0211835Y0065395D02*
X0231730Y0065395D01*
X0231730Y0065993D02*
X0212805Y0065993D01*
X0213403Y0066592D02*
X0231730Y0066592D01*
X0231730Y0067190D02*
X0213895Y0067190D01*
X0214143Y0067789D02*
X0231730Y0067789D01*
X0231730Y0068387D02*
X0214391Y0068387D01*
X0214550Y0068986D02*
X0231730Y0068986D01*
X0231730Y0069584D02*
X0214550Y0069584D01*
X0214550Y0070183D02*
X0231730Y0070183D01*
X0231730Y0070781D02*
X0214509Y0070781D01*
X0214261Y0071380D02*
X0231730Y0071380D01*
X0231730Y0071978D02*
X0214013Y0071978D01*
X0213688Y0072577D02*
X0231730Y0072577D01*
X0231730Y0073175D02*
X0213089Y0073175D01*
X0212491Y0073774D02*
X0231730Y0073774D01*
X0231730Y0074372D02*
X0211077Y0074372D01*
X0210812Y0074971D02*
X0231730Y0074971D01*
X0231730Y0075569D02*
X0212257Y0075569D01*
X0212980Y0076168D02*
X0231730Y0076168D01*
X0231730Y0076766D02*
X0213578Y0076766D01*
X0213967Y0077365D02*
X0231730Y0077365D01*
X0231730Y0077963D02*
X0214215Y0077963D01*
X0214463Y0078562D02*
X0231730Y0078562D01*
X0231730Y0079160D02*
X0214550Y0079160D01*
X0214550Y0079759D02*
X0231730Y0079759D01*
X0231730Y0080357D02*
X0214550Y0080357D01*
X0214436Y0080956D02*
X0231730Y0080956D01*
X0231730Y0081554D02*
X0214188Y0081554D01*
X0213940Y0082153D02*
X0231730Y0082153D01*
X0231730Y0082751D02*
X0213513Y0082751D01*
X0212915Y0083350D02*
X0231730Y0083350D01*
X0231730Y0083948D02*
X0212100Y0083948D01*
X0211233Y0085145D02*
X0231730Y0085145D01*
X0231730Y0084547D02*
X0191313Y0084547D01*
X0190715Y0083948D02*
X0201400Y0083948D01*
X0200585Y0083350D02*
X0189998Y0083350D01*
X0191912Y0085145D02*
X0202267Y0085145D01*
X0200944Y0085744D02*
X0192510Y0085744D01*
X0193109Y0086342D02*
X0200346Y0086342D01*
X0199987Y0082751D02*
X0051763Y0082751D01*
X0051165Y0083350D02*
X0115502Y0083350D01*
X0114785Y0083948D02*
X0050350Y0083948D01*
X0049483Y0085145D02*
X0113588Y0085145D01*
X0114187Y0084547D02*
X0021300Y0084547D01*
X0021300Y0095919D02*
X0039020Y0095919D01*
X0038421Y0096517D02*
X0021300Y0096517D01*
X0021300Y0097116D02*
X0037886Y0097116D01*
X0037638Y0097714D02*
X0021300Y0097714D01*
X0021300Y0098313D02*
X0037390Y0098313D01*
X0037200Y0098911D02*
X0021300Y0098911D01*
X0021300Y0099510D02*
X0037200Y0099510D01*
X0037200Y0100108D02*
X0021300Y0100108D01*
X0021300Y0100707D02*
X0037211Y0100707D01*
X0037458Y0101305D02*
X0021300Y0101305D01*
X0021300Y0101904D02*
X0037706Y0101904D01*
X0037988Y0102502D02*
X0021300Y0102502D01*
X0021300Y0103101D02*
X0038586Y0103101D01*
X0039185Y0103699D02*
X0021300Y0103699D01*
X0021300Y0104298D02*
X0040493Y0104298D01*
X0049928Y0094123D02*
X0123995Y0094123D01*
X0123728Y0093525D02*
X0050990Y0093525D01*
X0051589Y0092926D02*
X0123480Y0092926D01*
X0123461Y0092328D02*
X0114810Y0092328D01*
X0115490Y0091729D02*
X0123461Y0091729D01*
X0123644Y0091131D02*
X0116089Y0091131D01*
X0116687Y0090532D02*
X0123892Y0090532D01*
X0124392Y0089934D02*
X0117286Y0089934D01*
X0117884Y0089335D02*
X0125136Y0089335D01*
X0127876Y0095320D02*
X0151046Y0095320D01*
X0153564Y0095320D02*
X0201845Y0095320D01*
X0201822Y0094123D02*
X0155102Y0094123D01*
X0155350Y0093525D02*
X0200760Y0093525D01*
X0200161Y0092926D02*
X0155594Y0092926D01*
X0155594Y0092328D02*
X0190690Y0092328D01*
X0190010Y0091729D02*
X0155594Y0091729D01*
X0155388Y0091131D02*
X0189411Y0091131D01*
X0188813Y0090532D02*
X0155140Y0090532D01*
X0154608Y0089934D02*
X0188214Y0089934D01*
X0187616Y0089335D02*
X0153786Y0089335D01*
X0154516Y0094722D02*
X0231730Y0094722D01*
X0231730Y0095320D02*
X0211655Y0095320D01*
X0211678Y0094123D02*
X0231730Y0094123D01*
X0231730Y0093525D02*
X0212740Y0093525D01*
X0213339Y0092926D02*
X0231730Y0092926D01*
X0231730Y0092328D02*
X0213868Y0092328D01*
X0214116Y0091729D02*
X0231730Y0091729D01*
X0231730Y0091131D02*
X0214364Y0091131D01*
X0214550Y0090532D02*
X0231730Y0090532D01*
X0231730Y0089934D02*
X0214550Y0089934D01*
X0214550Y0089335D02*
X0231730Y0089335D01*
X0231730Y0088737D02*
X0214535Y0088737D01*
X0214288Y0088138D02*
X0231730Y0088138D01*
X0231730Y0087540D02*
X0214040Y0087540D01*
X0213753Y0086941D02*
X0231730Y0086941D01*
X0231730Y0086342D02*
X0213154Y0086342D01*
X0212556Y0085744D02*
X0231730Y0085744D01*
X0231730Y0095919D02*
X0212730Y0095919D01*
X0213329Y0096517D02*
X0231730Y0096517D01*
X0231730Y0097116D02*
X0213864Y0097116D01*
X0214112Y0097714D02*
X0231730Y0097714D01*
X0231730Y0098313D02*
X0214360Y0098313D01*
X0214550Y0098911D02*
X0231730Y0098911D01*
X0231730Y0099510D02*
X0214550Y0099510D01*
X0214550Y0100108D02*
X0231730Y0100108D01*
X0231730Y0100707D02*
X0214539Y0100707D01*
X0214292Y0101305D02*
X0231730Y0101305D01*
X0231730Y0101904D02*
X0214044Y0101904D01*
X0213762Y0102502D02*
X0231730Y0102502D01*
X0231730Y0103101D02*
X0213164Y0103101D01*
X0212565Y0103699D02*
X0231730Y0103699D01*
X0201243Y0075569D02*
X0050507Y0075569D01*
X0051230Y0076168D02*
X0200520Y0076168D01*
X0201009Y0073774D02*
X0050741Y0073774D01*
X0051339Y0073175D02*
X0200411Y0073175D01*
X0199812Y0072577D02*
X0051938Y0072577D01*
X0052263Y0071978D02*
X0199487Y0071978D01*
X0199239Y0071380D02*
X0052511Y0071380D01*
X0052759Y0070781D02*
X0198991Y0070781D01*
X0198950Y0070183D02*
X0052800Y0070183D01*
X0052800Y0069584D02*
X0198950Y0069584D01*
X0198950Y0068986D02*
X0052800Y0068986D01*
X0052641Y0068387D02*
X0199109Y0068387D01*
X0199357Y0067789D02*
X0052393Y0067789D01*
X0052145Y0067190D02*
X0199605Y0067190D01*
X0200097Y0066592D02*
X0051653Y0066592D01*
X0050719Y0063796D02*
X0048955Y0064526D01*
X0041045Y0064526D01*
X0039281Y0063796D01*
X0037931Y0062445D01*
X0037200Y0060681D01*
X0037200Y0058772D01*
X0037931Y0057007D01*
X0039281Y0055657D01*
X0041045Y0054926D01*
X0048955Y0054926D01*
X0050719Y0055657D01*
X0052069Y0057007D01*
X0052800Y0058772D01*
X0052800Y0060681D01*
X0052069Y0062445D01*
X0050719Y0063796D01*
X0050916Y0063599D02*
X0068965Y0063599D01*
X0068300Y0063001D02*
X0051514Y0063001D01*
X0052087Y0062402D02*
X0067948Y0062402D01*
X0068157Y0062871D02*
X0068157Y0062871D01*
X0067681Y0061804D02*
X0052335Y0061804D01*
X0052583Y0061205D02*
X0067415Y0061205D01*
X0067148Y0060607D02*
X0052800Y0060607D01*
X0052800Y0060008D02*
X0066882Y0060008D01*
X0066820Y0059409D02*
X0052800Y0059409D01*
X0052800Y0058811D02*
X0066820Y0058811D01*
X0066820Y0058212D02*
X0052568Y0058212D01*
X0052320Y0057614D02*
X0066820Y0057614D01*
X0066820Y0057015D02*
X0052073Y0057015D01*
X0051479Y0056417D02*
X0066894Y0056417D01*
X0067161Y0055818D02*
X0050880Y0055818D01*
X0049663Y0055220D02*
X0067427Y0055220D01*
X0067694Y0054621D02*
X0021300Y0054621D01*
X0021300Y0054023D02*
X0039829Y0054023D01*
X0039281Y0053796D02*
X0037931Y0052445D01*
X0037200Y0050681D01*
X0037200Y0048772D01*
X0037931Y0047007D01*
X0039281Y0045657D01*
X0041045Y0044926D01*
X0048955Y0044926D01*
X0050719Y0045657D01*
X0052069Y0047007D01*
X0052800Y0048772D01*
X0052800Y0050681D01*
X0052069Y0052445D01*
X0050719Y0053796D01*
X0048955Y0054526D01*
X0041045Y0054526D01*
X0039281Y0053796D01*
X0038910Y0053424D02*
X0021300Y0053424D01*
X0021300Y0052826D02*
X0038311Y0052826D01*
X0037840Y0052227D02*
X0021300Y0052227D01*
X0021300Y0051629D02*
X0037593Y0051629D01*
X0037345Y0051030D02*
X0021300Y0051030D01*
X0021300Y0050432D02*
X0037200Y0050432D01*
X0037200Y0049833D02*
X0021300Y0049833D01*
X0021300Y0049235D02*
X0037200Y0049235D01*
X0037256Y0048636D02*
X0021300Y0048636D01*
X0021300Y0048038D02*
X0037504Y0048038D01*
X0037752Y0047439D02*
X0021300Y0047439D01*
X0021300Y0046841D02*
X0038098Y0046841D01*
X0038696Y0046242D02*
X0021300Y0046242D01*
X0021300Y0045644D02*
X0039314Y0045644D01*
X0040759Y0045045D02*
X0021300Y0045045D01*
X0021300Y0044447D02*
X0040853Y0044447D01*
X0041045Y0044526D02*
X0039281Y0043796D01*
X0037931Y0042445D01*
X0037200Y0040681D01*
X0037200Y0038772D01*
X0037931Y0037007D01*
X0039281Y0035657D01*
X0041045Y0034926D01*
X0048955Y0034926D01*
X0050719Y0035657D01*
X0052069Y0037007D01*
X0052800Y0038772D01*
X0052800Y0040681D01*
X0052069Y0042445D01*
X0050719Y0043796D01*
X0048955Y0044526D01*
X0041045Y0044526D01*
X0039408Y0043848D02*
X0021300Y0043848D01*
X0021300Y0043250D02*
X0038735Y0043250D01*
X0038136Y0042651D02*
X0021300Y0042651D01*
X0021300Y0042053D02*
X0037768Y0042053D01*
X0037520Y0041454D02*
X0021300Y0041454D01*
X0021300Y0040856D02*
X0037272Y0040856D01*
X0037200Y0040257D02*
X0021300Y0040257D01*
X0021300Y0039659D02*
X0037200Y0039659D01*
X0037200Y0039060D02*
X0021300Y0039060D01*
X0021300Y0038462D02*
X0037328Y0038462D01*
X0037576Y0037863D02*
X0021300Y0037863D01*
X0021300Y0037265D02*
X0037824Y0037265D01*
X0038272Y0036666D02*
X0021300Y0036666D01*
X0021300Y0036068D02*
X0038871Y0036068D01*
X0039735Y0035469D02*
X0021300Y0035469D01*
X0021300Y0034871D02*
X0231730Y0034871D01*
X0231730Y0035469D02*
X0212015Y0035469D01*
X0212469Y0035657D02*
X0213819Y0037007D01*
X0214550Y0038772D01*
X0214550Y0040681D01*
X0213819Y0042445D01*
X0212469Y0043796D01*
X0210705Y0044526D01*
X0202795Y0044526D01*
X0201031Y0043796D01*
X0199681Y0042445D01*
X0198950Y0040681D01*
X0198950Y0038772D01*
X0199681Y0037007D01*
X0201031Y0035657D01*
X0202795Y0034926D01*
X0210705Y0034926D01*
X0212469Y0035657D01*
X0212879Y0036068D02*
X0231730Y0036068D01*
X0231730Y0036666D02*
X0213478Y0036666D01*
X0213926Y0037265D02*
X0231730Y0037265D01*
X0231730Y0037863D02*
X0214174Y0037863D01*
X0214422Y0038462D02*
X0231730Y0038462D01*
X0231730Y0039060D02*
X0214550Y0039060D01*
X0214550Y0039659D02*
X0231730Y0039659D01*
X0231730Y0040257D02*
X0214550Y0040257D01*
X0214478Y0040856D02*
X0231730Y0040856D01*
X0231730Y0041454D02*
X0214230Y0041454D01*
X0213982Y0042053D02*
X0231730Y0042053D01*
X0231730Y0042651D02*
X0213614Y0042651D01*
X0213015Y0043250D02*
X0231730Y0043250D01*
X0231730Y0043848D02*
X0212342Y0043848D01*
X0210897Y0044447D02*
X0231730Y0044447D01*
X0231730Y0045045D02*
X0210991Y0045045D01*
X0210705Y0044926D02*
X0212469Y0045657D01*
X0213819Y0047007D01*
X0214550Y0048772D01*
X0214550Y0050681D01*
X0213819Y0052445D01*
X0212469Y0053796D01*
X0210705Y0054526D01*
X0202795Y0054526D01*
X0201031Y0053796D01*
X0199681Y0052445D01*
X0198950Y0050681D01*
X0198950Y0048772D01*
X0199681Y0047007D01*
X0201031Y0045657D01*
X0202795Y0044926D01*
X0210705Y0044926D01*
X0212436Y0045644D02*
X0231730Y0045644D01*
X0231730Y0046242D02*
X0213054Y0046242D01*
X0213652Y0046841D02*
X0231730Y0046841D01*
X0231730Y0047439D02*
X0213998Y0047439D01*
X0214246Y0048038D02*
X0231730Y0048038D01*
X0231730Y0048636D02*
X0214494Y0048636D01*
X0214550Y0049235D02*
X0231730Y0049235D01*
X0231730Y0049833D02*
X0214550Y0049833D01*
X0214550Y0050432D02*
X0231730Y0050432D01*
X0231730Y0051030D02*
X0214405Y0051030D01*
X0214157Y0051629D02*
X0231730Y0051629D01*
X0231730Y0052227D02*
X0213910Y0052227D01*
X0213439Y0052826D02*
X0231730Y0052826D01*
X0231730Y0053424D02*
X0212840Y0053424D01*
X0211921Y0054023D02*
X0231730Y0054023D01*
X0231730Y0054621D02*
X0081485Y0054621D01*
X0081813Y0055220D02*
X0202087Y0055220D01*
X0201579Y0054023D02*
X0081050Y0054023D01*
X0080615Y0053424D02*
X0200660Y0053424D01*
X0200061Y0052826D02*
X0080181Y0052826D01*
X0079838Y0052354D02*
X0079838Y0052354D01*
X0079838Y0052354D01*
X0079619Y0052227D02*
X0199590Y0052227D01*
X0199343Y0051629D02*
X0078582Y0051629D01*
X0077545Y0051030D02*
X0199095Y0051030D01*
X0198950Y0050432D02*
X0074337Y0050432D01*
X0073724Y0050367D02*
X0073724Y0050367D01*
X0073526Y0050432D02*
X0052800Y0050432D01*
X0052800Y0049833D02*
X0198950Y0049833D01*
X0198950Y0049235D02*
X0052800Y0049235D01*
X0052744Y0048636D02*
X0199006Y0048636D01*
X0199254Y0048038D02*
X0052496Y0048038D01*
X0052248Y0047439D02*
X0199502Y0047439D01*
X0199848Y0046841D02*
X0051902Y0046841D01*
X0051304Y0046242D02*
X0200446Y0046242D01*
X0201064Y0045644D02*
X0050686Y0045644D01*
X0049241Y0045045D02*
X0202509Y0045045D01*
X0202603Y0044447D02*
X0049147Y0044447D01*
X0050592Y0043848D02*
X0201158Y0043848D01*
X0200485Y0043250D02*
X0051265Y0043250D01*
X0051864Y0042651D02*
X0199886Y0042651D01*
X0199518Y0042053D02*
X0052232Y0042053D01*
X0052480Y0041454D02*
X0199270Y0041454D01*
X0199022Y0040856D02*
X0052728Y0040856D01*
X0052800Y0040257D02*
X0198950Y0040257D01*
X0198950Y0039659D02*
X0052800Y0039659D01*
X0052800Y0039060D02*
X0198950Y0039060D01*
X0199078Y0038462D02*
X0052672Y0038462D01*
X0052424Y0037863D02*
X0199326Y0037863D01*
X0199574Y0037265D02*
X0052176Y0037265D01*
X0051728Y0036666D02*
X0200022Y0036666D01*
X0200621Y0036068D02*
X0051129Y0036068D01*
X0050265Y0035469D02*
X0201485Y0035469D01*
X0200870Y0055818D02*
X0081940Y0055818D01*
X0082068Y0056417D02*
X0200271Y0056417D01*
X0199677Y0057015D02*
X0082195Y0057015D01*
X0082322Y0057614D02*
X0199430Y0057614D01*
X0199182Y0058212D02*
X0082449Y0058212D01*
X0082328Y0058811D02*
X0198950Y0058811D01*
X0198950Y0059409D02*
X0082201Y0059409D01*
X0082074Y0060008D02*
X0198950Y0060008D01*
X0198950Y0060607D02*
X0081946Y0060607D01*
X0081819Y0061205D02*
X0199167Y0061205D01*
X0199415Y0061804D02*
X0081506Y0061804D01*
X0081769Y0061441D02*
X0081769Y0061441D01*
X0081071Y0062402D02*
X0199663Y0062402D01*
X0200236Y0063001D02*
X0080636Y0063001D01*
X0080201Y0063599D02*
X0200834Y0063599D01*
X0202001Y0064198D02*
X0079667Y0064198D01*
X0069630Y0064198D02*
X0049749Y0064198D01*
X0050171Y0054023D02*
X0067960Y0054023D01*
X0068331Y0053424D02*
X0051090Y0053424D01*
X0051689Y0052826D02*
X0068996Y0052826D01*
X0069661Y0052227D02*
X0052160Y0052227D01*
X0052407Y0051629D02*
X0070326Y0051629D01*
X0070599Y0051383D02*
X0070599Y0051383D01*
X0071684Y0051030D02*
X0052655Y0051030D01*
X0040337Y0055220D02*
X0021300Y0055220D01*
X0021300Y0055818D02*
X0039120Y0055818D01*
X0038521Y0056417D02*
X0021300Y0056417D01*
X0021300Y0057015D02*
X0037927Y0057015D01*
X0037680Y0057614D02*
X0021300Y0057614D01*
X0021300Y0058212D02*
X0037432Y0058212D01*
X0037200Y0058811D02*
X0021300Y0058811D01*
X0021300Y0059409D02*
X0037200Y0059409D01*
X0037200Y0060008D02*
X0021300Y0060008D01*
X0021300Y0060607D02*
X0037200Y0060607D01*
X0037417Y0061205D02*
X0021300Y0061205D01*
X0021300Y0061804D02*
X0037665Y0061804D01*
X0037913Y0062402D02*
X0021300Y0062402D01*
X0021300Y0063001D02*
X0038486Y0063001D01*
X0039084Y0063599D02*
X0021300Y0063599D01*
X0049062Y0074971D02*
X0202688Y0074971D01*
X0202423Y0074372D02*
X0049327Y0074372D01*
X0050806Y0085744D02*
X0112990Y0085744D01*
X0112391Y0086342D02*
X0051404Y0086342D01*
X0076992Y0050711D02*
X0076992Y0050711D01*
X0138784Y0140209D02*
X0231730Y0140209D01*
X0231730Y0140807D02*
X0139925Y0140807D01*
X0140523Y0141406D02*
X0231730Y0141406D01*
X0231730Y0142004D02*
X0140836Y0142004D01*
X0141084Y0142603D02*
X0231730Y0142603D01*
X0231730Y0143201D02*
X0141135Y0143201D01*
X0141135Y0143800D02*
X0231730Y0143800D01*
X0231730Y0144398D02*
X0140985Y0144398D01*
X0140838Y0144997D02*
X0231730Y0144997D01*
X0231730Y0145595D02*
X0140590Y0145595D01*
X0140275Y0146194D02*
X0231730Y0146194D01*
X0231730Y0146792D02*
X0139677Y0146792D01*
X0139078Y0147391D02*
X0231730Y0147391D01*
X0231730Y0147989D02*
X0138480Y0147989D01*
X0137881Y0148588D02*
X0231730Y0148588D01*
X0231730Y0149186D02*
X0137283Y0149186D01*
X0136684Y0149785D02*
X0231730Y0149785D01*
X0231730Y0150383D02*
X0136086Y0150383D01*
X0135487Y0150982D02*
X0231730Y0150982D01*
X0231730Y0151580D02*
X0134889Y0151580D01*
X0134290Y0152179D02*
X0231730Y0152179D01*
X0231730Y0152777D02*
X0133692Y0152777D01*
X0133093Y0153376D02*
X0231730Y0153376D01*
X0231730Y0153974D02*
X0132495Y0153974D01*
X0131896Y0154573D02*
X0231730Y0154573D01*
X0231730Y0155171D02*
X0131298Y0155171D01*
X0130699Y0155770D02*
X0231730Y0155770D01*
X0231730Y0156368D02*
X0130101Y0156368D01*
X0129502Y0156967D02*
X0231730Y0156967D01*
X0231730Y0157565D02*
X0128904Y0157565D01*
X0128305Y0158164D02*
X0231730Y0158164D01*
X0231730Y0158762D02*
X0127707Y0158762D01*
X0136625Y0167142D02*
X0073828Y0167142D01*
X0073229Y0167740D02*
X0136027Y0167740D01*
X0135428Y0168339D02*
X0072631Y0168339D01*
X0072032Y0168937D02*
X0134830Y0168937D01*
X0134231Y0169536D02*
X0071434Y0169536D01*
X0070835Y0170134D02*
X0133633Y0170134D01*
X0133034Y0170733D02*
X0070500Y0170733D01*
X0070500Y0171331D02*
X0132436Y0171331D01*
X0131837Y0171930D02*
X0070500Y0171930D01*
X0070500Y0172528D02*
X0131239Y0172528D01*
X0130640Y0173127D02*
X0070500Y0173127D01*
X0070500Y0173725D02*
X0130042Y0173725D01*
X0129443Y0174324D02*
X0070500Y0174324D01*
X0070500Y0174922D02*
X0128845Y0174922D01*
X0128246Y0175521D02*
X0070500Y0175521D01*
X0070500Y0176119D02*
X0127647Y0176119D01*
X0127049Y0176718D02*
X0070500Y0176718D01*
X0070500Y0177316D02*
X0126450Y0177316D01*
X0125852Y0177915D02*
X0070500Y0177915D01*
X0070500Y0178513D02*
X0125253Y0178513D01*
X0124655Y0179112D02*
X0070500Y0179112D01*
X0070500Y0179710D02*
X0124056Y0179710D01*
X0123458Y0180309D02*
X0070500Y0180309D01*
X0070500Y0180907D02*
X0123016Y0180907D01*
X0122598Y0181506D02*
X0070500Y0181506D01*
X0070500Y0182104D02*
X0121730Y0182104D01*
X0121132Y0182703D02*
X0070446Y0182703D01*
X0070198Y0183301D02*
X0120533Y0183301D01*
X0120248Y0183900D02*
X0069819Y0183900D01*
X0069221Y0184498D02*
X0120000Y0184498D01*
X0129582Y0182104D02*
X0132617Y0182104D01*
X0131839Y0182703D02*
X0129868Y0182703D01*
X0130467Y0183301D02*
X0131272Y0183301D01*
X0130842Y0183900D02*
X0130752Y0183900D01*
X0130180Y0181506D02*
X0133983Y0181506D01*
X0135200Y0181506D02*
X0135800Y0181506D01*
X0135800Y0182104D02*
X0135200Y0182104D01*
X0135200Y0182703D02*
X0135800Y0182703D01*
X0135800Y0183301D02*
X0135200Y0183301D01*
X0135200Y0183900D02*
X0135800Y0183900D01*
X0135800Y0184498D02*
X0135200Y0184498D01*
X0135200Y0185097D02*
X0135800Y0185097D01*
X0135800Y0185695D02*
X0135200Y0185695D01*
X0135200Y0186294D02*
X0135800Y0186294D01*
X0135800Y0187027D02*
X0135200Y0187027D01*
X0135200Y0192160D01*
X0135072Y0192160D01*
X0134228Y0192027D01*
X0134175Y0192009D01*
X0135500Y0193335D01*
X0136825Y0192009D01*
X0136772Y0192027D01*
X0135928Y0192160D01*
X0135800Y0192160D01*
X0135800Y0187027D01*
X0135800Y0187491D02*
X0135200Y0187491D01*
X0135200Y0188089D02*
X0135800Y0188089D01*
X0135800Y0188688D02*
X0135200Y0188688D01*
X0135200Y0189286D02*
X0135800Y0189286D01*
X0135800Y0189885D02*
X0135200Y0189885D01*
X0135200Y0190483D02*
X0135800Y0190483D01*
X0135800Y0191082D02*
X0135200Y0191082D01*
X0135200Y0191680D02*
X0135800Y0191680D01*
X0136556Y0192279D02*
X0134444Y0192279D01*
X0135043Y0192878D02*
X0135957Y0192878D01*
X0140158Y0183900D02*
X0140248Y0183900D01*
X0140533Y0183301D02*
X0139728Y0183301D01*
X0139161Y0182703D02*
X0141132Y0182703D01*
X0141730Y0182104D02*
X0138383Y0182104D01*
X0137017Y0181506D02*
X0142598Y0181506D01*
X0144043Y0180907D02*
X0130779Y0180907D01*
X0131377Y0180309D02*
X0184163Y0180309D01*
X0183972Y0179934D02*
X0183709Y0179122D01*
X0183575Y0178278D01*
X0183575Y0174026D01*
X0188700Y0174026D01*
X0188700Y0173426D01*
X0189300Y0173426D01*
X0189300Y0164176D01*
X0189427Y0164176D01*
X0190270Y0164310D01*
X0191082Y0164574D01*
X0191843Y0164962D01*
X0192534Y0165464D01*
X0193138Y0166067D01*
X0193640Y0166758D01*
X0194028Y0167519D01*
X0194291Y0168331D01*
X0194425Y0169175D01*
X0194425Y0173426D01*
X0189300Y0173426D01*
X0189300Y0174026D01*
X0194425Y0174026D01*
X0194425Y0178278D01*
X0194291Y0179122D01*
X0194028Y0179934D01*
X0193640Y0180695D01*
X0193138Y0181386D01*
X0192534Y0181989D01*
X0191843Y0182491D01*
X0191082Y0182879D01*
X0190270Y0183143D01*
X0189427Y0183276D01*
X0189300Y0183276D01*
X0189300Y0174027D01*
X0188700Y0174027D01*
X0188700Y0183276D01*
X0188573Y0183276D01*
X0187730Y0183143D01*
X0186918Y0182879D01*
X0186157Y0182491D01*
X0185466Y0181989D01*
X0184862Y0181386D01*
X0184360Y0180695D01*
X0183972Y0179934D01*
X0183900Y0179710D02*
X0131976Y0179710D01*
X0132575Y0179112D02*
X0183707Y0179112D01*
X0183612Y0178513D02*
X0133173Y0178513D01*
X0133772Y0177915D02*
X0183575Y0177915D01*
X0183575Y0177316D02*
X0134370Y0177316D01*
X0134969Y0176718D02*
X0183575Y0176718D01*
X0183575Y0176119D02*
X0135567Y0176119D01*
X0136166Y0175521D02*
X0183575Y0175521D01*
X0183575Y0174922D02*
X0136764Y0174922D01*
X0137363Y0174324D02*
X0183575Y0174324D01*
X0183575Y0173426D02*
X0183575Y0169175D01*
X0183709Y0168331D01*
X0183972Y0167519D01*
X0184360Y0166758D01*
X0184862Y0166067D01*
X0185466Y0165464D01*
X0186157Y0164962D01*
X0186918Y0164574D01*
X0187730Y0164310D01*
X0188573Y0164176D01*
X0188700Y0164176D01*
X0188700Y0173426D01*
X0183575Y0173426D01*
X0183575Y0173127D02*
X0138560Y0173127D01*
X0139158Y0172528D02*
X0183575Y0172528D01*
X0183575Y0171930D02*
X0139757Y0171930D01*
X0140355Y0171331D02*
X0183575Y0171331D01*
X0183575Y0170733D02*
X0140954Y0170733D01*
X0141552Y0170134D02*
X0183575Y0170134D01*
X0183575Y0169536D02*
X0142151Y0169536D01*
X0142749Y0168937D02*
X0183613Y0168937D01*
X0183707Y0168339D02*
X0143348Y0168339D01*
X0143946Y0167740D02*
X0183901Y0167740D01*
X0184165Y0167142D02*
X0144545Y0167142D01*
X0145143Y0166543D02*
X0184516Y0166543D01*
X0184985Y0165945D02*
X0146543Y0165945D01*
X0147532Y0165346D02*
X0185628Y0165346D01*
X0186577Y0164747D02*
X0148130Y0164747D01*
X0137961Y0173725D02*
X0188700Y0173725D01*
X0188700Y0173127D02*
X0189300Y0173127D01*
X0189300Y0173725D02*
X0203075Y0173725D01*
X0203075Y0173127D02*
X0194425Y0173127D01*
X0194425Y0172528D02*
X0203075Y0172528D01*
X0203075Y0171930D02*
X0194425Y0171930D01*
X0194425Y0171331D02*
X0203075Y0171331D01*
X0203075Y0170733D02*
X0194425Y0170733D01*
X0194425Y0170134D02*
X0203075Y0170134D01*
X0203075Y0169536D02*
X0194425Y0169536D01*
X0194387Y0168937D02*
X0203075Y0168937D01*
X0203110Y0168339D02*
X0194293Y0168339D01*
X0194099Y0167740D02*
X0203358Y0167740D01*
X0203606Y0167142D02*
X0193835Y0167142D01*
X0193484Y0166543D02*
X0203854Y0166543D01*
X0204278Y0165945D02*
X0193015Y0165945D01*
X0192372Y0165346D02*
X0204876Y0165346D01*
X0205475Y0164747D02*
X0191423Y0164747D01*
X0189300Y0164747D02*
X0188700Y0164747D01*
X0188700Y0165346D02*
X0189300Y0165346D01*
X0189300Y0165945D02*
X0188700Y0165945D01*
X0188700Y0166543D02*
X0189300Y0166543D01*
X0189300Y0167142D02*
X0188700Y0167142D01*
X0188700Y0167740D02*
X0189300Y0167740D01*
X0189300Y0168339D02*
X0188700Y0168339D01*
X0188700Y0168937D02*
X0189300Y0168937D01*
X0189300Y0169536D02*
X0188700Y0169536D01*
X0188700Y0170134D02*
X0189300Y0170134D01*
X0189300Y0170733D02*
X0188700Y0170733D01*
X0188700Y0171331D02*
X0189300Y0171331D01*
X0189300Y0171930D02*
X0188700Y0171930D01*
X0188700Y0172528D02*
X0189300Y0172528D01*
X0189300Y0174324D02*
X0188700Y0174324D01*
X0188700Y0174922D02*
X0189300Y0174922D01*
X0189300Y0175521D02*
X0188700Y0175521D01*
X0188700Y0176119D02*
X0189300Y0176119D01*
X0189300Y0176718D02*
X0188700Y0176718D01*
X0188700Y0177316D02*
X0189300Y0177316D01*
X0189300Y0177915D02*
X0188700Y0177915D01*
X0188700Y0178513D02*
X0189300Y0178513D01*
X0189300Y0179112D02*
X0188700Y0179112D01*
X0188700Y0179710D02*
X0189300Y0179710D01*
X0189300Y0180309D02*
X0188700Y0180309D01*
X0188700Y0180907D02*
X0189300Y0180907D01*
X0189300Y0181506D02*
X0188700Y0181506D01*
X0188700Y0182104D02*
X0189300Y0182104D01*
X0189300Y0182703D02*
X0188700Y0182703D01*
X0186572Y0182703D02*
X0159711Y0182703D01*
X0160309Y0183301D02*
X0206674Y0183301D01*
X0205472Y0182703D02*
X0191428Y0182703D01*
X0192376Y0182104D02*
X0204874Y0182104D01*
X0204275Y0181506D02*
X0193018Y0181506D01*
X0193485Y0180907D02*
X0203853Y0180907D01*
X0203605Y0180309D02*
X0193837Y0180309D01*
X0194100Y0179710D02*
X0203357Y0179710D01*
X0203109Y0179112D02*
X0194293Y0179112D01*
X0194388Y0178513D02*
X0203075Y0178513D01*
X0203075Y0177915D02*
X0194425Y0177915D01*
X0194425Y0177316D02*
X0203075Y0177316D01*
X0203075Y0176718D02*
X0194425Y0176718D01*
X0194425Y0176119D02*
X0203075Y0176119D01*
X0203075Y0175521D02*
X0194425Y0175521D01*
X0194425Y0174922D02*
X0203075Y0174922D01*
X0203075Y0174324D02*
X0194425Y0174324D01*
X0185624Y0182104D02*
X0159112Y0182104D01*
X0158245Y0181506D02*
X0184982Y0181506D01*
X0184515Y0180907D02*
X0156800Y0180907D01*
X0153885Y0180907D02*
X0146957Y0180907D01*
X0148402Y0181506D02*
X0152440Y0181506D01*
X0151573Y0182104D02*
X0149270Y0182104D01*
X0149868Y0182703D02*
X0150974Y0182703D01*
X0146040Y0200658D02*
X0144960Y0200658D01*
X0144362Y0201257D02*
X0146638Y0201257D01*
X0147376Y0201855D02*
X0143624Y0201855D01*
X0142179Y0202454D02*
X0148821Y0202454D01*
X0092687Y0195272D02*
X0077313Y0195272D01*
X0078243Y0194673D02*
X0091757Y0194673D01*
X0091158Y0194075D02*
X0078842Y0194075D01*
X0079218Y0193476D02*
X0090782Y0193476D01*
X0090534Y0192878D02*
X0079466Y0192878D01*
X0079700Y0192279D02*
X0090300Y0192279D01*
X0090300Y0191680D02*
X0079700Y0191680D01*
X0079700Y0191082D02*
X0090300Y0191082D01*
X0090365Y0190483D02*
X0079635Y0190483D01*
X0079387Y0189885D02*
X0090613Y0189885D01*
X0090861Y0189286D02*
X0079139Y0189286D01*
X0078651Y0188688D02*
X0091349Y0188688D01*
X0091947Y0188089D02*
X0078053Y0188089D01*
X0076853Y0187491D02*
X0093147Y0187491D01*
X0074147Y0187491D02*
X0066228Y0187491D01*
X0065630Y0188089D02*
X0072947Y0188089D01*
X0072349Y0188688D02*
X0065031Y0188688D01*
X0064433Y0189286D02*
X0071861Y0189286D01*
X0071613Y0189885D02*
X0063834Y0189885D01*
X0063236Y0190483D02*
X0071365Y0190483D01*
X0071300Y0191082D02*
X0062895Y0191082D01*
X0062447Y0191680D02*
X0071300Y0191680D01*
X0212666Y0063599D02*
X0231730Y0063599D01*
X0231730Y0063001D02*
X0213264Y0063001D01*
X0213837Y0062402D02*
X0231730Y0062402D01*
X0231730Y0061804D02*
X0214085Y0061804D01*
X0214333Y0061205D02*
X0231730Y0061205D01*
X0231730Y0060607D02*
X0214550Y0060607D01*
X0214550Y0060008D02*
X0231730Y0060008D01*
X0231730Y0059409D02*
X0214550Y0059409D01*
X0214550Y0058811D02*
X0231730Y0058811D01*
X0231730Y0058212D02*
X0214318Y0058212D01*
X0214070Y0057614D02*
X0231730Y0057614D01*
X0231730Y0057015D02*
X0213823Y0057015D01*
X0213229Y0056417D02*
X0231730Y0056417D01*
X0231730Y0055818D02*
X0212630Y0055818D01*
X0211413Y0055220D02*
X0231730Y0055220D01*
D16*
X0152305Y0092282D03*
X0145500Y0104976D03*
X0126750Y0092226D03*
X0121750Y0103976D03*
X0089500Y0103976D03*
X0066750Y0125476D03*
X0082750Y0141976D03*
X0092750Y0178726D03*
X0109500Y0188226D03*
X0145346Y0162880D03*
X0137846Y0143380D03*
X0060000Y0189476D03*
D17*
X0067500Y0181976D01*
X0067500Y0169226D01*
X0072750Y0163976D01*
X0118250Y0163976D01*
X0137846Y0144380D01*
X0137846Y0143380D01*
X0121750Y0103976D02*
X0089500Y0103976D01*
X0113250Y0089726D02*
X0117000Y0085976D01*
X0188500Y0085976D01*
X0192250Y0089726D01*
X0206750Y0089726D01*
X0206750Y0079726D02*
X0045000Y0079726D01*
X0045000Y0089726D02*
X0113250Y0089726D01*
X0126750Y0092226D02*
X0152250Y0092226D01*
X0152305Y0092282D01*
X0206750Y0099726D02*
X0045000Y0099726D01*
X0045000Y0109726D02*
X0206750Y0109726D01*
X0206750Y0119726D02*
X0045000Y0119726D01*
D18*
X0109500Y0188226D02*
X0109500Y0199226D01*
X0115750Y0205476D01*
X0134750Y0205476D01*
X0140500Y0199726D01*
X0140500Y0196726D01*
D19*
X0125500Y0186726D02*
X0125500Y0182226D01*
X0145000Y0162726D01*
X0145346Y0162726D01*
X0145346Y0162880D01*
M02*
