G75*
%MOIN*%
%OFA0B0*%
%FSLAX25Y25*%
%IPPOS*%
%LPD*%
%AMOC8*
5,1,8,0,0,1.08239X$1,22.5*
%
%ADD10R,0.05131X0.04737*%
%ADD11C,0.11811*%
%ADD12C,0.09068*%
%ADD13C,0.09050*%
%ADD14R,0.03950X0.03950*%
%ADD15R,0.04737X0.05131*%
%ADD16R,0.02600X0.07800*%
%ADD17R,0.04934X0.05052*%
%ADD18R,0.06706X0.08674*%
%ADD19R,0.02900X0.08600*%
%ADD20C,0.05600*%
%ADD21R,0.05052X0.04934*%
%ADD22C,0.06800*%
%ADD23R,0.10249X0.10249*%
D10*
X0145500Y0169630D03*
X0145500Y0176323D03*
D11*
X0207750Y0195726D03*
X0074550Y0058226D03*
D12*
X0125500Y0186726D03*
X0135500Y0186726D03*
X0145500Y0186726D03*
X0155343Y0186726D03*
X0150500Y0196726D03*
X0140500Y0196726D03*
X0130500Y0196726D03*
X0120657Y0196726D03*
D13*
X0189000Y0177851D02*
X0189000Y0169601D01*
X0209000Y0169601D02*
X0209000Y0177851D01*
D14*
X0036703Y0157476D03*
X0030797Y0157476D03*
X0030797Y0147976D03*
X0036703Y0147976D03*
D15*
X0043154Y0147976D03*
X0049846Y0147976D03*
X0049846Y0157476D03*
X0043154Y0157476D03*
D16*
X0062750Y0172626D03*
X0067750Y0172626D03*
X0072750Y0172626D03*
X0077750Y0172626D03*
X0082750Y0172626D03*
X0087750Y0172626D03*
X0092750Y0172626D03*
X0097750Y0172626D03*
X0102750Y0172626D03*
X0107750Y0172626D03*
X0112750Y0172626D03*
X0117750Y0172626D03*
X0122750Y0172626D03*
X0127750Y0172626D03*
X0127750Y0134826D03*
X0122750Y0134826D03*
X0117750Y0134826D03*
X0112750Y0134826D03*
X0107750Y0134826D03*
X0102750Y0134826D03*
X0097750Y0134826D03*
X0092750Y0134826D03*
X0087750Y0134826D03*
X0082750Y0134826D03*
X0077750Y0134826D03*
X0072750Y0134826D03*
X0067750Y0134826D03*
X0062750Y0134826D03*
D17*
X0062445Y0181226D03*
X0055555Y0181226D03*
X0075305Y0205726D03*
X0082195Y0205726D03*
X0087555Y0205726D03*
X0094445Y0205726D03*
X0134055Y0134726D03*
X0140945Y0134726D03*
D18*
X0086406Y0124226D03*
X0074594Y0124226D03*
D19*
X0106750Y0084176D03*
X0111750Y0084176D03*
X0116750Y0084176D03*
X0121750Y0084176D03*
X0130500Y0084176D03*
X0135500Y0084176D03*
X0140500Y0084176D03*
X0145500Y0084176D03*
X0145500Y0064776D03*
X0140500Y0064776D03*
X0135500Y0064776D03*
X0130500Y0064776D03*
X0121750Y0064776D03*
X0116750Y0064776D03*
X0111750Y0064776D03*
X0106750Y0064776D03*
D20*
X0094500Y0191476D03*
X0075500Y0191476D03*
D21*
X0157750Y0138921D03*
X0163250Y0138921D03*
X0168750Y0138921D03*
X0168750Y0132032D03*
X0163250Y0132032D03*
X0157750Y0132032D03*
X0145500Y0099171D03*
X0145500Y0092282D03*
X0121750Y0092282D03*
X0121750Y0099171D03*
D22*
X0048000Y0039726D02*
X0042000Y0039726D01*
X0042000Y0049726D02*
X0048000Y0049726D01*
X0048000Y0059726D02*
X0042000Y0059726D01*
X0042000Y0069726D02*
X0048000Y0069726D01*
X0048000Y0079726D02*
X0042000Y0079726D01*
X0042000Y0089726D02*
X0048000Y0089726D01*
X0048000Y0099726D02*
X0042000Y0099726D01*
X0042000Y0109726D02*
X0048000Y0109726D01*
X0048000Y0119726D02*
X0042000Y0119726D01*
X0042000Y0129726D02*
X0048000Y0129726D01*
X0203750Y0129726D02*
X0209750Y0129726D01*
X0209750Y0119726D02*
X0203750Y0119726D01*
X0203750Y0109726D02*
X0209750Y0109726D01*
X0209750Y0099726D02*
X0203750Y0099726D01*
X0203750Y0089726D02*
X0209750Y0089726D01*
X0209750Y0079726D02*
X0203750Y0079726D01*
X0203750Y0069726D02*
X0209750Y0069726D01*
X0209750Y0059726D02*
X0203750Y0059726D01*
X0203750Y0049726D02*
X0209750Y0049726D01*
X0209750Y0039726D02*
X0203750Y0039726D01*
D23*
X0185500Y0128815D03*
X0185500Y0146138D03*
M02*
